<svg version="1.1" viewBox="0.0 0.0 549.514435695538 330.28871391076115" fill="none" stroke="none" stroke-linecap="square" stroke-miterlimit="10" xmlns:xlink="http://www.w3.org/1999/xlink" xmlns="http://www.w3.org/2000/svg"><clipPath id="p.0"><path d="m0 0l549.51447 0l0 330.28873l-549.51447 0l0 -330.28873z" clip-rule="nonzero"/></clipPath><g clip-path="url(#p.0)"><path fill="#484848" fill-opacity="0.6131" d="m0 0l549.51447 0l0 330.28873l-549.51447 0z" fill-rule="evenodd"/><path fill="#000000" fill-opacity="0.0" d="m10.9763775 9.6587925l527.2441 0l0 312.2205l-527.2441 0z" fill-rule="evenodd"/><path stroke="#9900ff" stroke-width="1.0" stroke-linejoin="round" stroke-linecap="butt" d="m10.9763775 9.6587925l527.2441 0l0 312.2205l-527.2441 0z" fill-rule="evenodd"/><path fill="#cfe2f3" d="m84.83925 119.325874l123.14961 0l0 66.551186l-123.14961 0z" fill-rule="evenodd"/><path fill="#000000" d="m106.80761 159.47458l-0.703125 0.1875l-0.671875 -0.703125q-0.578125 0.359375 -1.234375 0.53125q-0.640625 0.171875 -1.484375 0.171875q-2.296875 0 -3.46875 -1.578125q-1.171875 -1.578125 -1.171875 -4.6875q0 -1.953125 0.640625 -3.40625q0.640625 -1.46875 1.828125 -2.25q1.203125 -0.796875 2.8125 -0.796875q0.84375 0 1.625 0.09375q0.78125 0.09375 1.75 0.328125l0 2.515625l-0.90625 0q-0.25 -0.828125 -0.59375 -1.28125q-0.328125 -0.46875 -0.796875 -0.65625q-0.46875 -0.203125 -1.1875 -0.203125q-1.0 0 -1.75 0.640625q-0.734375 0.640625 -1.15625 1.890625q-0.40625 1.234375 -0.40625 2.984375q0 1.796875 0.34375 3.0625q0.359375 1.265625 1.046875 1.90625q0.6875 0.640625 1.703125 0.640625q1.078125 0 1.59375 -0.46875q0.515625 -0.46875 0.515625 -1.4375l0 -0.546875q0 -0.828125 -0.09375 -1.1875q-0.078125 -0.375 -0.296875 -0.5625q-0.21875 -0.203125 -0.71875 -0.328125l0 -0.453125l3.6875 0l0 0.453125q-0.328125 0.109375 -0.5 0.25q-0.15625 0.140625 -0.25 0.359375q-0.078125 0.203125 -0.125 0.515625q-0.03125 0.296875 -0.03125 0.859375l0 3.15625zm11.395981 0l-0.703125 0.1875l-0.671875 -0.703125q-0.578125 0.359375 -1.234375 0.53125q-0.640625 0.171875 -1.484375 0.171875q-2.296875 0 -3.46875 -1.578125q-1.171875 -1.578125 -1.171875 -4.6875q0 -1.953125 0.640625 -3.40625q0.640625 -1.46875 1.828125 -2.25q1.203125 -0.796875 2.8125 -0.796875q0.84375 0 1.625 0.09375q0.78125 0.09375 1.75 0.328125l0 2.515625l-0.90625 0q-0.25 -0.828125 -0.59375 -1.28125q-0.328125 -0.46875 -0.796875 -0.65625q-0.46875 -0.203125 -1.1875 -0.203125q-1.0 0 -1.75 0.640625q-0.734375 0.640625 -1.15625 1.890625q-0.40625 1.234375 -0.40625 2.984375q0 1.796875 0.34375 3.0625q0.359375 1.265625 1.046875 1.90625q0.6875 0.640625 1.703125 0.640625q1.078125 0 1.59375 -0.46875q0.515625 -0.46875 0.515625 -1.4375l0 -0.546875q0 -0.828125 -0.09375 -1.1875q-0.078125 -0.375 -0.296875 -0.5625q-0.21875 -0.203125 -0.71875 -0.328125l0 -0.453125l3.6875 0l0 0.453125q-0.328125 0.109375 -0.5 0.25q-0.15625 0.140625 -0.25 0.359375q-0.078125 0.203125 -0.125 0.515625q-0.03125 0.296875 -0.03125 0.859375l0 3.15625zm6.786606 -4.046875l-4.21875 0l0 -1.40625l4.21875 0l0 1.40625zm15.1007 -7.890625q-0.40625 0.09375 -0.578125 0.203125q-0.171875 0.09375 -0.28125 0.25q-0.109375 0.140625 -0.15625 0.453125q-0.046875 0.296875 -0.046875 0.921875l0 7.875q0 0.609375 0.03125 0.890625q0.046875 0.28125 0.140625 0.453125q0.09375 0.15625 0.28125 0.265625q0.1875 0.109375 0.609375 0.21875l0 0.453125l-3.796875 0l0 -0.453125q0.515625 -0.125 0.71875 -0.28125q0.203125 -0.171875 0.265625 -0.484375q0.078125 -0.328125 0.078125 -1.0625l0 -3.484375q0 -1.375 0.03125 -2.78125q0.046875 -1.40625 0.109375 -1.921875l-0.15625 0l-3.609375 9.015625l-1.046875 0l-3.34375 -9.171875l-0.15625 0q0.046875 0.5625 0.078125 2.015625q0.046875 1.453125 0.046875 3.0l0 3.328125q0 0.609375 0.03125 0.890625q0.046875 0.28125 0.140625 0.453125q0.09375 0.15625 0.28125 0.265625q0.1875 0.109375 0.609375 0.21875l0 0.453125l-3.3281174 0l0 -0.453125q0.5625 -0.140625 0.75 -0.3125q0.203125 -0.1875 0.24999237 -0.515625q0.0625 -0.328125 0.0625 -1.0l0 -7.875q0 -0.625 -0.046875 -0.90625q-0.03125 -0.296875 -0.14061737 -0.453125q-0.109375 -0.15625 -0.28125 -0.25q-0.171875 -0.109375 -0.59375 -0.21875l0 -0.453125l3.2499924 0l3.203125 8.859375l3.515625 -8.859375l3.078125 0l0 0.453125zm7.259735 10.6875l-0.140625 -0.046875q-0.796875 0.8125 -1.5 1.15625q-0.6875 0.328125 -1.46875 0.328125q-0.703125 0 -1.234375 -0.265625q-0.515625 -0.265625 -0.796875 -0.75q-0.28125 -0.484375 -0.28125 -1.125q0 -1.328125 1.3125 -2.046875q1.3125 -0.734375 3.953125 -0.859375l0 -0.59375q0 -0.9375 -0.1875 -1.484375q-0.1875 -0.546875 -0.578125 -0.796875q-0.390625 -0.265625 -1.046875 -0.265625q-0.703125 0 -1.140625 0.375q-0.4375 0.375 -0.65625 1.125l-1.1875 0l0 -1.1875q0.875 -0.453125 1.453125 -0.671875q0.59375 -0.21875 1.171875 -0.328125q0.578125 -0.125 1.1875 -0.125q0.890625 0 1.4375 0.28125q0.546875 0.28125 0.8125 0.875q0.28125 0.59375 0.28125 1.796875l0 3.171875q0 0.671875 0 0.953125q0.015625 0.265625 0.0625 0.515625q0.046875 0.234375 0.140625 0.375q0.09375 0.140625 0.265625 0.234375q0.1875 0.09375 0.578125 0.203125l0 0.453125l-2.484375 0l0.046875 -1.296875zm-0.15625 -2.859375q-1.859375 0.015625 -2.78125 0.5q-0.90625 0.46875 -0.90625 1.421875q0 0.515625 0.203125 0.828125q0.203125 0.296875 0.515625 0.40625q0.328125 0.109375 0.765625 0.109375q0.625 0 1.125 -0.296875q0.5 -0.296875 0.78125 -0.75q0.296875 -0.46875 0.296875 -0.9375l0 -1.28125zm6.453247 -3.046875l0.125 0.03125q0.5 -0.609375 0.921875 -0.953125q0.4375 -0.359375 0.9375 -0.546875q0.5 -0.1875 1.125 -0.1875q0.53125 0 0.953125 0.046875l0 2.09375l-1.03125 0q-0.21875 -0.484375 -0.46875 -0.703125q-0.234375 -0.234375 -0.671875 -0.234375q-0.328125 0 -0.65625 0.203125q-0.3125 0.1875 -0.625 0.546875q-0.296875 0.359375 -0.40625 0.6875q-0.109375 0.3125 -0.109375 0.75l0 3.1875q0 0.828125 0.09375 1.15625q0.109375 0.3125 0.328125 0.453125q0.234375 0.140625 0.703125 0.21875l0 0.453125l-3.671875 0l0 -0.453125q0.34375 -0.109375 0.5 -0.1875q0.15625 -0.078125 0.265625 -0.21875q0.109375 -0.15625 0.15625 -0.453125q0.0625 -0.296875 0.0625 -0.9375l0 -3.96875q0 -0.59375 -0.03125 -0.9375q-0.015625 -0.359375 -0.125 -0.5625q-0.109375 -0.21875 -0.328125 -0.328125q-0.21875 -0.109375 -0.640625 -0.171875l0 -0.484375l2.140625 -0.09375l0.546875 0l-0.09375 1.59375zm13.7235565 11.125l-3.71875 0l0 -0.453125q0.4375 -0.09375 0.625 -0.203125q0.203125 -0.109375 0.296875 -0.28125q0.109375 -0.15625 0.140625 -0.453125q0.046875 -0.28125 0.046875 -0.875l0 -3.15625q-0.484375 0.5625 -0.90625 0.90625q-0.421875 0.328125 -0.953125 0.53125q-0.515625 0.203125 -1.09375 0.203125q-1.5 0 -2.3125 -1.109375q-0.796875 -1.125 -0.796875 -3.265625q0 -1.515625 0.515625 -2.546875q0.53125 -1.046875 1.46875 -1.5625q0.9375 -0.515625 2.15625 -0.515625q0.65625 0 1.171875 0.140625q0.515625 0.125 1.0625 0.40625l0.640625 -0.546875l0.625 0.140625l0 10.375q0 0.53125 0.03125 0.84375q0.046875 0.3125 0.140625 0.484375q0.109375 0.1875 0.3125 0.28125q0.21875 0.109375 0.546875 0.203125l0 0.453125zm-2.609375 -9.34375q0 -0.859375 -0.109375 -1.3125q-0.09375 -0.46875 -0.359375 -0.796875q-0.265625 -0.328125 -0.625 -0.46875q-0.359375 -0.140625 -0.84375 -0.140625q-1.171875 0 -1.796875 0.953125q-0.625 0.953125 -0.625 2.671875q0 1.75 0.5 2.65625q0.515625 0.90625 1.53125 0.90625q0.375 0 0.640625 -0.0625q0.28125 -0.0625 0.53125 -0.21875q0.265625 -0.15625 0.53125 -0.421875q0.265625 -0.265625 0.375 -0.46875q0.125 -0.21875 0.1875 -0.5q0.0625 -0.296875 0.0625 -0.734375l0 -2.0625zm3.8588867 -3.28125l2.59375 0l0 4.625q0 1.078125 0.078125 1.640625q0.078125 0.546875 0.234375 0.828125q0.171875 0.28125 0.46875 0.46875q0.3125 0.1875 0.828125 0.1875q0.359375 0 0.671875 -0.125q0.3125 -0.140625 0.703125 -0.484375q0.40625 -0.34375 0.5625 -0.671875q0.171875 -0.34375 0.171875 -0.796875l0 -3.40625q0 -0.515625 -0.03125 -0.78125q-0.015625 -0.265625 -0.078125 -0.421875q-0.0625 -0.171875 -0.15625 -0.265625q-0.09375 -0.09375 -0.25 -0.171875q-0.15625 -0.09375 -0.515625 -0.1875l0 -0.4375l2.59375 0l0 6.21875q0 0.703125 0.03125 1.015625q0.03125 0.296875 0.125 0.484375q0.09375 0.1875 0.28125 0.296875q0.1875 0.109375 0.6875 0.21875l0 0.46875l-2.09375 0.09375l-0.5625 0l0.0625 -1.5l-0.140625 -0.03125q-0.75 0.8125 -1.4375 1.203125q-0.6875 0.375 -1.375 0.375q-0.84375 0 -1.375 -0.328125q-0.53125 -0.328125 -0.796875 -0.96875q-0.265625 -0.65625 -0.265625 -1.84375l0 -3.4375q0 -0.765625 -0.0625 -1.046875q-0.0625 -0.296875 -0.234375 -0.453125q-0.15625 -0.171875 -0.71875 -0.328125l0 -0.4375zm17.787216 7.15625q-0.578125 0.609375 -1.0625 0.953125q-0.484375 0.34375 -1.078125 0.546875q-0.578125 0.1875 -1.28125 0.1875q-1.875 0 -2.828125 -1.125q-0.953125 -1.125 -0.953125 -3.3125q0 -1.359375 0.484375 -2.390625q0.484375 -1.046875 1.375 -1.609375q0.90625 -0.5625 2.09375 -0.5625q0.921875 0 1.5625 0.296875q0.640625 0.28125 1.03125 0.796875q0.390625 0.5 0.59375 1.265625q0.21875 0.765625 0.25 2.015625l-5.734375 0l0 0.15625q0 1.078125 0.234375 1.8125q0.25 0.734375 0.796875 1.15625q0.546875 0.40625 1.4375 0.40625q0.75 0 1.34375 -0.28125q0.59375 -0.28125 1.1875 -0.90625l0.546875 0.59375zm-1.53125 -3.703125q-0.046875 -0.984375 -0.25 -1.609375q-0.1875 -0.625 -0.578125 -0.953125q-0.375 -0.328125 -0.984375 -0.328125q-0.9375 0 -1.5 0.75q-0.5625 0.75 -0.65625 2.140625l3.96875 0zm10.225388 2.609375l0 2.640625l-7.015625 0l0 -0.453125l5.0 -7.515625l-2.46875 0q-0.453125 0 -0.71875 0.171875q-0.265625 0.15625 -0.515625 0.546875q-0.234375 0.375 -0.453125 1.015625l-0.78125 0l0 -2.46875l6.90625 0l0 0.453125l-4.984375 7.515625l2.390625 0q0.46875 0 0.703125 -0.078125q0.25 -0.078125 0.421875 -0.234375q0.171875 -0.15625 0.328125 -0.5q0.171875 -0.34375 0.390625 -1.09375l0.796875 0z" fill-rule="nonzero"/><path fill="#d9ead3" d="m207.98785 18.016163l123.1496 0l0 66.55118l-123.1496 0z" fill-rule="evenodd"/><path fill="#000000" d="m248.86934 58.21175l0 -0.453125q0.453125 -0.078125 0.671875 -0.1875q0.234375 -0.109375 0.34375 -0.296875q0.109375 -0.203125 0.109375 -0.53125q0 -0.3125 -0.078125 -0.671875q-0.078125 -0.359375 -0.203125 -0.8125l-0.34375 -1.171875l-4.25 0l-0.296875 0.890625q-0.25 0.671875 -0.328125 1.015625q-0.0625 0.34375 -0.0625 0.640625q0 0.546875 0.28125 0.796875q0.28125 0.25 0.84375 0.328125l0 0.453125l-3.890625 0l0 -0.453125q0.515625 -0.078125 0.890625 -0.578125q0.390625 -0.515625 0.734375 -1.46875l3.796875 -10.078125l1.453125 0l3.09375 10.15625q0.21875 0.703125 0.375 1.078125q0.171875 0.375 0.40625 0.59375q0.25 0.203125 0.65625 0.296875l0 0.453125l-4.203125 0zm-3.5 -4.921875l3.8125 0l-1.734375 -5.875l-2.078125 5.875zm8.281265 -3.78125l2.59375 0l0 4.625q0 1.078125 0.078125 1.640625q0.078125 0.546875 0.234375 0.828125q0.171875 0.28125 0.46875 0.46875q0.3125 0.1875 0.828125 0.1875q0.359375 0 0.671875 -0.125q0.3125 -0.140625 0.703125 -0.484375q0.40625 -0.34375 0.5625 -0.671875q0.171875 -0.34375 0.171875 -0.796875l0 -3.40625q0 -0.515625 -0.03125 -0.78125q-0.015625 -0.265625 -0.078125 -0.421875q-0.0625 -0.171875 -0.15625 -0.265625q-0.09375 -0.09375 -0.25 -0.171875q-0.15625 -0.09375 -0.515625 -0.1875l0 -0.4375l2.59375 0l0 6.21875q0 0.703125 0.03125 1.015625q0.03125 0.296875 0.125 0.484375q0.09375 0.1875 0.28125 0.296875q0.1875 0.109375 0.6875 0.21875l0 0.46875l-2.09375 0.09375l-0.5625 0l0.0625 -1.5l-0.140625 -0.03125q-0.75 0.8125 -1.4375 1.203125q-0.6875 0.375 -1.375 0.375q-0.84375 0 -1.375 -0.328125q-0.53125 -0.328125 -0.796875 -0.96875q-0.265625 -0.65625 -0.265625 -1.84375l0 -3.4375q0 -0.765625 -0.0625 -1.046875q-0.0625 -0.296875 -0.234375 -0.453125q-0.15625 -0.171875 -0.71875 -0.328125l0 -0.4375zm9.974731 0.453125q0.453125 -0.078125 0.734375 -0.25q0.28125 -0.1875 0.4375 -0.46875q0.15625 -0.296875 0.25 -0.71875q0.09375 -0.4375 0.1875 -1.265625l1.296875 0l0 2.25l2.9375 0l0 0.921875l-2.9375 0l0 4.046875q0 0.890625 0.0625 1.421875q0.078125 0.515625 0.28125 0.8125q0.203125 0.28125 0.453125 0.421875q0.265625 0.125 0.65625 0.125q0.375 0 0.6875 -0.140625q0.328125 -0.15625 0.625 -0.453125l0.421875 0.5q-0.65625 0.625 -1.234375 0.90625q-0.578125 0.28125 -1.1875 0.28125q-1.1875 0 -1.765625 -0.6875q-0.5625 -0.703125 -0.5625 -2.1875l0 -5.046875l-1.34375 0l0 -0.46875zm9.297241 0.96875l0.03125 0.015625q0.71875 -0.71875 1.125 -1.0q0.421875 -0.296875 0.828125 -0.4375q0.40625 -0.15625 0.859375 -0.15625q0.5 0 0.890625 0.125q0.390625 0.109375 0.6875 0.359375q0.296875 0.234375 0.484375 0.59375q0.1875 0.34375 0.28125 0.84375q0.09375 0.484375 0.09375 1.21875l0 3.4375q0 0.796875 0.0625 1.09375q0.078125 0.28125 0.25 0.4375q0.171875 0.15625 0.71875 0.296875l0 0.453125l-3.59375 0l0 -0.453125q0.359375 -0.109375 0.515625 -0.1875q0.15625 -0.078125 0.25 -0.21875q0.109375 -0.15625 0.171875 -0.453125q0.0625 -0.3125 0.0625 -0.921875l0 -2.390625q0 -1.21875 -0.125 -1.859375q-0.125 -0.640625 -0.484375 -0.953125q-0.359375 -0.328125 -1.015625 -0.328125q-0.359375 0 -0.65625 0.140625q-0.28125 0.125 -0.671875 0.453125q-0.375 0.328125 -0.578125 0.671875q-0.1875 0.34375 -0.1875 0.734375l0 3.484375q0 0.625 0.03125 0.890625q0.03125 0.265625 0.125 0.4375q0.09375 0.171875 0.265625 0.296875q0.1875 0.109375 0.59375 0.203125l0 0.453125l-3.609375 0l0 -0.453125q0.390625 -0.109375 0.5625 -0.203125q0.171875 -0.09375 0.265625 -0.25q0.109375 -0.15625 0.15625 -0.453125q0.046875 -0.296875 0.046875 -0.921875l0 -7.625q0 -0.875 -0.015625 -1.21875q-0.015625 -0.34375 -0.078125 -0.578125q-0.0625 -0.25 -0.171875 -0.375q-0.09375 -0.140625 -0.28125 -0.21875q-0.171875 -0.09375 -0.640625 -0.171875l0 -0.46875l2.203125 -0.09375l0.546875 0l0 5.75zm11.809357 7.421875q-1.890625 0 -2.890625 -1.109375q-1.0 -1.125 -1.0 -3.296875q0 -1.515625 0.515625 -2.546875q0.53125 -1.046875 1.4375 -1.546875q0.921875 -0.5 2.078125 -0.5q1.953125 0 2.953125 1.140625q1.015625 1.125 1.015625 3.25q0 1.515625 -0.515625 2.546875q-0.5 1.03125 -1.421875 1.546875q-0.90625 0.515625 -2.171875 0.515625zm-2.171875 -4.609375q0 1.875 0.59375 2.890625q0.609375 1.0 1.71875 1.0q0.609375 0 1.03125 -0.296875q0.4375 -0.296875 0.703125 -0.796875q0.265625 -0.5 0.375 -1.15625q0.125 -0.65625 0.125 -1.375q0 -1.34375 -0.296875 -2.21875q-0.296875 -0.890625 -0.8125 -1.296875q-0.5 -0.421875 -1.15625 -0.421875q-1.09375 0 -1.6875 0.953125q-0.59375 0.953125 -0.59375 2.71875zm10.573914 -2.734375l0.125 0.03125q0.5 -0.609375 0.921875 -0.953125q0.4375 -0.359375 0.9375 -0.546875q0.5 -0.1875 1.125 -0.1875q0.53125 0 0.953125 0.046875l0 2.09375l-1.03125 0q-0.21875 -0.484375 -0.46875 -0.703125q-0.234375 -0.234375 -0.671875 -0.234375q-0.328125 0 -0.65625 0.203125q-0.3125 0.1875 -0.625 0.546875q-0.296875 0.359375 -0.40625 0.6875q-0.109375 0.3125 -0.109375 0.75l0 3.1875q0 0.828125 0.09375 1.15625q0.109375 0.3125 0.328125 0.453125q0.234375 0.140625 0.703125 0.21875l0 0.453125l-3.671875 0l0 -0.453125q0.34375 -0.109375 0.5 -0.1875q0.15625 -0.078125 0.265625 -0.21875q0.109375 -0.15625 0.15625 -0.453125q0.0625 -0.296875 0.0625 -0.9375l0 -3.96875q0 -0.59375 -0.03125 -0.9375q-0.015625 -0.359375 -0.125 -0.5625q-0.109375 -0.21875 -0.328125 -0.328125q-0.21875 -0.109375 -0.640625 -0.171875l0 -0.484375l2.140625 -0.09375l0.546875 0l-0.09375 1.59375z" fill-rule="nonzero"/><path fill="#d9d2e9" d="m32.065666 230.98204l96.25196 0l0 66.55119l-96.25196 0z" fill-rule="evenodd"/><path fill="#000000" d="m58.031708 259.77515l0 1.984375l-0.703125 0q-0.171875 -0.625 -0.4375 -0.984375q-0.265625 -0.375 -0.625 -0.53125q-0.34375 -0.15625 -0.828125 -0.15625q-0.75 0 -1.328125 0.5q-0.5625 0.484375 -0.90625 1.46875q-0.328125 0.96875 -0.328125 2.375q0 1.40625 0.265625 2.390625q0.28125 0.984375 0.8125 1.5q0.53125 0.5 1.3125 0.5q0.578125 0 0.953125 -0.171875q0.375 -0.171875 0.625 -0.53125q0.25 -0.359375 0.484375 -1.078125l0.703125 0l0 2.046875q-0.671875 0.1875 -1.375 0.265625q-0.703125 0.09375 -1.546875 0.09375q-1.8125 0 -2.75 -1.21875q-0.921875 -1.234375 -0.921875 -3.671875q0 -1.53125 0.46875 -2.6875q0.484375 -1.15625 1.421875 -1.78125q0.9375 -0.640625 2.25 -0.640625q0.640625 0 1.1875 0.078125q0.5625 0.0625 1.265625 0.25zm4.6035156 9.671875q-1.5 0 -2.28125 -0.875q-0.78125 -0.875 -0.78125 -2.59375q0 -1.171875 0.40625 -1.984375q0.421875 -0.828125 1.125 -1.21875q0.71875 -0.40625 1.640625 -0.40625q1.53125 0 2.3125 0.890625q0.796875 0.890625 0.796875 2.5625q0 1.1875 -0.40625 2.015625q-0.390625 0.8125 -1.109375 1.21875q-0.71875 0.390625 -1.703125 0.390625zm-1.703125 -3.609375q0 1.46875 0.46875 2.265625q0.46875 0.78125 1.34375 0.78125q0.46875 0 0.796875 -0.234375q0.34375 -0.234375 0.546875 -0.625q0.21875 -0.390625 0.3125 -0.90625q0.09375 -0.515625 0.09375 -1.09375q0 -1.046875 -0.234375 -1.734375q-0.234375 -0.703125 -0.640625 -1.015625q-0.390625 -0.328125 -0.90625 -0.328125q-0.859375 0 -1.328125 0.75q-0.453125 0.75 -0.453125 2.140625zm8.278976 1.703125q0 0.625 0.046875 0.875q0.0625 0.234375 0.21875 0.359375q0.171875 0.125 0.53125 0.21875l0 0.34375l-2.84375 0l0 -0.34375q0.359375 -0.09375 0.5 -0.1875q0.140625 -0.109375 0.203125 -0.25q0.0625 -0.140625 0.078125 -0.375q0.03125 -0.25 0.03125 -0.640625l0 -5.984375q0 -0.6875 -0.015625 -0.953125q0 -0.28125 -0.046875 -0.46875q-0.046875 -0.1875 -0.140625 -0.296875q-0.078125 -0.109375 -0.21875 -0.171875q-0.140625 -0.0625 -0.5 -0.125l0 -0.375l1.71875 -0.0625l0.4375 0l0 8.4375zm5.182068 1.90625q-1.5 0 -2.28125 -0.875q-0.78125 -0.875 -0.78125 -2.59375q0 -1.171875 0.40625 -1.984375q0.421875 -0.828125 1.125 -1.21875q0.71875 -0.40625 1.640625 -0.40625q1.53125 0 2.3125 0.890625q0.796875 0.890625 0.796875 2.5625q0 1.1875 -0.40625 2.015625q-0.390625 0.8125 -1.109375 1.21875q-0.71875 0.390625 -1.703125 0.390625zm-1.703125 -3.609375q0 1.46875 0.46875 2.265625q0.46875 0.78125 1.34375 0.78125q0.46875 0 0.796875 -0.234375q0.34375 -0.234375 0.546875 -0.625q0.21875 -0.390625 0.3125 -0.90625q0.09375 -0.515625 0.09375 -1.09375q0 -1.046875 -0.234375 -1.734375q-0.234375 -0.703125 -0.640625 -1.015625q-0.390625 -0.328125 -0.90625 -0.328125q-0.859375 0 -1.328125 0.75q-0.453125 0.75 -0.453125 2.140625zm8.294601 -2.234375l0.109375 0.03125q0.421875 -0.4375 0.6875 -0.65625q0.28125 -0.21875 0.53125 -0.34375q0.265625 -0.140625 0.484375 -0.1875q0.234375 -0.0625 0.46875 -0.0625q0.71875 0 1.171875 0.328125q0.453125 0.328125 0.625 1.0q0.53125 -0.53125 0.859375 -0.78125q0.34375 -0.265625 0.6875 -0.40625q0.34375 -0.140625 0.75 -0.140625q0.46875 0 0.8125 0.140625q0.359375 0.140625 0.59375 0.4375q0.25 0.28125 0.359375 0.71875q0.109375 0.4375 0.109375 1.171875l0 2.6875q0 0.546875 0.03125 0.765625q0.03125 0.203125 0.09375 0.328125q0.078125 0.109375 0.203125 0.1875q0.140625 0.078125 0.46875 0.171875l0 0.34375l-2.8125 0l0 -0.34375q0.28125 -0.09375 0.390625 -0.15625q0.125 -0.0625 0.203125 -0.171875q0.09375 -0.125 0.140625 -0.359375q0.046875 -0.25 0.046875 -0.734375l0 -1.875q0 -0.609375 -0.03125 -1.0q-0.03125 -0.390625 -0.109375 -0.625q-0.0625 -0.25 -0.15625 -0.375q-0.09375 -0.140625 -0.21875 -0.234375q-0.125 -0.109375 -0.296875 -0.15625q-0.15625 -0.0625 -0.421875 -0.0625q-0.296875 0 -0.546875 0.109375q-0.234375 0.109375 -0.53125 0.390625q-0.28125 0.265625 -0.421875 0.546875q-0.125 0.28125 -0.125 0.640625l0 2.609375q0 0.546875 0.03125 0.765625q0.046875 0.203125 0.109375 0.328125q0.0625 0.109375 0.203125 0.1875q0.140625 0.078125 0.453125 0.171875l0 0.34375l-2.8125 0l0 -0.34375q0.28125 -0.09375 0.40625 -0.15625q0.125 -0.0625 0.203125 -0.171875q0.078125 -0.125 0.125 -0.359375q0.046875 -0.25 0.046875 -0.734375l0 -1.875q0 -0.625 -0.03125 -1.03125q-0.03125 -0.40625 -0.109375 -0.640625q-0.078125 -0.25 -0.203125 -0.390625q-0.109375 -0.15625 -0.234375 -0.234375q-0.109375 -0.078125 -0.28125 -0.109375q-0.171875 -0.046875 -0.375 -0.046875q-0.296875 0 -0.5625 0.140625q-0.25 0.125 -0.515625 0.375q-0.265625 0.25 -0.40625 0.53125q-0.125 0.265625 -0.125 0.578125l0 2.671875q0 0.421875 0.015625 0.640625q0.015625 0.203125 0.0625 0.328125q0.046875 0.125 0.125 0.203125q0.078125 0.0625 0.203125 0.140625q0.125 0.0625 0.390625 0.140625l0 0.34375l-2.796875 0l0 -0.34375q0.265625 -0.09375 0.375 -0.15625q0.125 -0.0625 0.203125 -0.171875q0.09375 -0.125 0.140625 -0.359375q0.046875 -0.234375 0.046875 -0.734375l0 -3.125q0 -0.453125 -0.015625 -0.734375q-0.015625 -0.28125 -0.109375 -0.4375q-0.078125 -0.171875 -0.25 -0.25q-0.171875 -0.09375 -0.5 -0.15625l0 -0.375l1.671875 -0.0625l0.4375 0l-0.078125 1.171875zm12.069458 0.015625l0.03125 0.015625q0.5 -0.53125 0.828125 -0.765625q0.328125 -0.234375 0.6875 -0.359375q0.359375 -0.125 0.78125 -0.125q0.765625 0 1.3125 0.390625q0.546875 0.390625 0.84375 1.171875q0.296875 0.78125 0.296875 1.90625q0 1.171875 -0.359375 1.984375q-0.359375 0.796875 -1.046875 1.203125q-0.6875 0.40625 -1.625 0.40625q-0.53125 0 -1.0 -0.09375q-0.46875 -0.09375 -0.984375 -0.34375l-0.5 0.4375l-0.5 -0.109375l0 -7.78125q0 -0.6875 -0.015625 -0.953125q0 -0.28125 -0.046875 -0.46875q-0.046875 -0.1875 -0.140625 -0.296875q-0.078125 -0.109375 -0.21875 -0.171875q-0.140625 -0.0625 -0.5 -0.125l0 -0.375l1.734375 -0.0625l0.421875 0l0 4.515625zm0 3.140625q0 0.546875 0.046875 0.875q0.046875 0.328125 0.15625 0.546875q0.125 0.21875 0.34375 0.390625q0.234375 0.171875 0.515625 0.25q0.28125 0.0625 0.625 0.0625q0.859375 0 1.296875 -0.703125q0.453125 -0.703125 0.453125 -2.09375q0 -1.421875 -0.40625 -2.125q-0.40625 -0.71875 -1.21875 -0.71875q-0.40625 0 -0.703125 0.125q-0.28125 0.125 -0.5625 0.390625q-0.28125 0.265625 -0.421875 0.53125q-0.125 0.25 -0.125 0.578125l0 1.890625zm8.256668 -7.0625l0 1.375l-1.3125 0l0 -1.375l1.3125 0zm-2.046875 9.296875q0.28125 -0.09375 0.390625 -0.15625q0.125 -0.0625 0.203125 -0.171875q0.09375 -0.125 0.140625 -0.359375q0.046875 -0.234375 0.046875 -0.734375l0 -3.125q0 -0.453125 -0.015625 -0.734375q-0.015625 -0.28125 -0.109375 -0.4375q-0.078125 -0.171875 -0.25 -0.25q-0.171875 -0.09375 -0.5 -0.15625l0 -0.375l1.671875 -0.0625l0.4375 0l0 5.109375q0 0.625 0.046875 0.875q0.0625 0.234375 0.21875 0.359375q0.171875 0.125 0.53125 0.21875l0 0.34375l-2.8125 0l0 -0.34375zm8.212601 -0.671875l-0.109375 -0.03125q-0.625 0.625 -1.171875 0.890625q-0.546875 0.265625 -1.15625 0.265625q-0.546875 0 -0.96875 -0.203125q-0.40625 -0.21875 -0.625 -0.59375q-0.21875 -0.390625 -0.21875 -0.890625q0 -1.046875 1.03125 -1.609375q1.03125 -0.5625 3.09375 -0.65625l0 -0.46875q0 -0.75 -0.140625 -1.171875q-0.140625 -0.4375 -0.453125 -0.625q-0.296875 -0.203125 -0.8125 -0.203125q-0.5625 0 -0.90625 0.296875q-0.34375 0.28125 -0.515625 0.875l-0.9375 0l0 -0.9375q0.6875 -0.359375 1.140625 -0.515625q0.46875 -0.171875 0.921875 -0.265625q0.46875 -0.109375 0.9375 -0.109375q0.703125 0 1.125 0.234375q0.4375 0.21875 0.65625 0.6875q0.21875 0.46875 0.21875 1.40625l0 2.484375q0 0.53125 0 0.75q0.015625 0.21875 0.046875 0.40625q0.03125 0.1875 0.09375 0.296875q0.078125 0.109375 0.21875 0.1875q0.140625 0.078125 0.453125 0.171875l0 0.34375l-1.953125 0l0.03125 -1.015625zm-0.125 -2.25q-1.453125 0.015625 -2.171875 0.390625q-0.71875 0.375 -0.71875 1.125q0 0.40625 0.15625 0.640625q0.171875 0.234375 0.421875 0.328125q0.25 0.09375 0.59375 0.09375q0.484375 0 0.875 -0.234375q0.40625 -0.25 0.625 -0.609375q0.21875 -0.359375 0.21875 -0.71875l0 -1.015625z" fill-rule="nonzero"/><path fill="#cfe2f3" d="m331.13846 119.325874l123.1496 0l0 66.551186l-123.1496 0z" fill-rule="evenodd"/><path fill="#000000" d="m381.90692 158.89645q0 1.234375 -0.296875 2.0q-0.28125 0.765625 -0.96875 1.296875q-0.671875 0.53125 -1.890625 0.90625l-0.296875 -0.8125q0.796875 -0.3125 1.125 -0.625q0.34375 -0.3125 0.46875 -0.78125q0.140625 -0.46875 0.140625 -1.28125l0 -10.234375q0 -0.796875 -0.078125 -1.078125q-0.078125 -0.296875 -0.25 -0.453125q-0.171875 -0.15625 -0.734375 -0.296875l0 -0.453125l3.84375 0l0 0.453125q-0.40625 0.09375 -0.578125 0.203125q-0.171875 0.09375 -0.28125 0.25q-0.109375 0.140625 -0.15625 0.453125q-0.046875 0.296875 -0.046875 0.921875l0 9.53125zm5.861389 -6.1875l0.28125 0q0.34375 0 0.625 -0.109375q0.296875 -0.109375 0.640625 -0.40625q0.359375 -0.3125 1.09375 -1.125q0.875 -0.96875 1.1875 -1.40625q0.40625 -0.53125 0.53125 -0.875q0.109375 -0.265625 0.109375 -0.515625q0 -0.359375 -0.203125 -0.53125q-0.203125 -0.171875 -0.578125 -0.203125l0 -0.453125l3.984375 0l0 0.453125q-0.296875 0.0625 -0.578125 0.21875q-0.28125 0.15625 -0.578125 0.4375q-0.296875 0.28125 -0.875 0.921875l-3.0625 3.4375l3.3125 4.8125q0.53125 0.765625 0.828125 1.078125q0.3125 0.296875 0.578125 0.453125q0.28125 0.140625 0.578125 0.171875l0 0.453125l-4.015625 0l0 -0.453125q0.34375 -0.015625 0.5 -0.109375q0.15625 -0.109375 0.15625 -0.3125q0 -0.15625 -0.109375 -0.390625q-0.109375 -0.234375 -0.328125 -0.5625l-2.125 -3.15625q-0.375 -0.578125 -0.546875 -0.75q-0.171875 -0.1875 -0.375 -0.265625q-0.203125 -0.09375 -0.53125 -0.09375l-0.484375 0l0 3.8125q0 0.609375 0.03125 0.890625q0.046875 0.28125 0.140625 0.453125q0.09375 0.15625 0.28125 0.265625q0.1875 0.109375 0.609375 0.21875l0 0.453125l-3.828125 0l0 -0.453125q0.5625 -0.140625 0.75 -0.3125q0.1875 -0.1875 0.25 -0.515625q0.0625 -0.328125 0.0625 -1.0l0 -7.875q0 -0.625 -0.046875 -0.90625q-0.046875 -0.296875 -0.15625 -0.453125q-0.09375 -0.15625 -0.28125 -0.25q-0.171875 -0.109375 -0.578125 -0.21875l0 -0.453125l3.828125 0l0 0.453125q-0.40625 0.09375 -0.578125 0.203125q-0.171875 0.09375 -0.28125 0.25q-0.109375 0.140625 -0.15625 0.453125q-0.046875 0.296875 -0.046875 0.921875l-0.015625 3.34375zm11.757782 1.40625l0 3.09375q0 0.65625 0.046875 0.953125q0.0625 0.296875 0.15625 0.453125q0.109375 0.15625 0.28125 0.25q0.171875 0.09375 0.59375 0.203125l0 0.453125l-3.84375 0l0 -0.453125q0.5625 -0.140625 0.75 -0.3125q0.1875 -0.1875 0.25 -0.515625q0.0625 -0.328125 0.0625 -1.0l0 -7.875q0 -0.625 -0.046875 -0.90625q-0.046875 -0.296875 -0.15625 -0.453125q-0.09375 -0.15625 -0.28125 -0.25q-0.171875 -0.109375 -0.578125 -0.21875l0 -0.453125l4.5 0q2.140625 0 3.1875 0.78125q1.0625 0.765625 1.0625 2.40625q0 1.25 -0.6875 2.125q-0.6875 0.859375 -2.0625 1.359375l0 0.078125q0.546875 0.21875 0.9375 0.640625q0.40625 0.421875 0.890625 1.328125l0.8125 1.484375q0.359375 0.65625 0.609375 1.0q0.265625 0.34375 0.53125 0.53125q0.265625 0.1875 0.703125 0.25l0 0.453125l-2.53125 0q-0.34375 -0.484375 -0.65625 -1.03125q-0.3125 -0.5625 -0.609375 -1.140625l-0.796875 -1.515625q-0.375 -0.6875 -0.609375 -1.015625q-0.21875 -0.328125 -0.421875 -0.453125q-0.1875 -0.140625 -0.421875 -0.1875q-0.21875 -0.0625 -0.671875 -0.0625l-1.0 0zm0 -6.1875l0 5.40625l1.03125 0q0.796875 0 1.28125 -0.109375q0.5 -0.109375 0.921875 -0.421875q0.421875 -0.328125 0.671875 -0.890625q0.25 -0.578125 0.25 -1.40625q0 -0.875 -0.296875 -1.4375q-0.296875 -0.578125 -0.90625 -0.875q-0.59375 -0.3125 -1.625 -0.3125q-0.8125 0 -1.328125 0.046875z" fill-rule="nonzero"/><path fill="#d9d2e9" d="m163.1061 230.98204l96.25197 0l0 66.55119l-96.25197 0z" fill-rule="evenodd"/><path fill="#000000" d="m177.82524 258.46265q0 0.421875 0.046875 0.640625q0.046875 0.203125 0.15625 0.34375q0.125 0.125 0.34375 0.203125q0.234375 0.078125 0.5625 0.125q0.34375 0.03125 0.890625 0.046875l0 0.515625l-5.28125 0l0 -0.515625q0.78125 -0.046875 1.125 -0.109375q0.34375 -0.0625 0.515625 -0.171875q0.1875 -0.125 0.265625 -0.34375q0.078125 -0.21875 0.078125 -0.734375l0 -5.7968903q0 -0.28125 -0.09375 -0.40625q-0.09375 -0.140625 -0.296875 -0.140625q-0.21875 0 -0.640625 0.234375q-0.421875 0.234375 -1.046875 0.65625l-0.3125 -0.5625l3.34375 -2.0l0.390625 0q-0.046875 0.6875 -0.046875 1.90625l0 6.1093903zm7.130951 1.984375q-1.546875 0 -2.3125 -1.203125q-0.75 -1.21875 -0.75 -3.7031403q0 -1.3125 0.234375 -2.265625q0.234375 -0.96875 0.640625 -1.59375q0.421875 -0.625 1.015625 -0.921875q0.59375 -0.3125 1.28125 -0.3125q1.5625 0 2.328125 1.21875q0.765625 1.203125 0.765625 3.65625q0 2.5312653 -0.828125 3.8281403q-0.8125 1.296875 -2.375 1.296875zm-1.671875 -5.1250153q0 2.3437653 0.4375 3.4375153q0.4375 1.078125 1.34375 1.078125q0.859375 0 1.28125 -1.015625q0.421875 -1.03125 0.421875 -3.1875153q0 -1.640625 -0.21875 -2.65625q-0.203125 -1.03125 -0.59375 -1.46875q-0.390625 -0.453125 -0.921875 -0.453125q-0.5 0 -0.84375 0.296875q-0.328125 0.296875 -0.53125 0.859375q-0.203125 0.546875 -0.296875 1.34375q-0.078125 0.78125 -0.078125 1.765625zm9.787201 5.1250153q-1.546875 0 -2.3125 -1.203125q-0.75 -1.21875 -0.75 -3.7031403q0 -1.3125 0.234375 -2.265625q0.234375 -0.96875 0.640625 -1.59375q0.421875 -0.625 1.015625 -0.921875q0.59375 -0.3125 1.28125 -0.3125q1.5625 0 2.328125 1.21875q0.765625 1.203125 0.765625 3.65625q0 2.5312653 -0.828125 3.8281403q-0.8125 1.296875 -2.375 1.296875zm-1.671875 -5.1250153q0 2.3437653 0.4375 3.4375153q0.4375 1.078125 1.34375 1.078125q0.859375 0 1.28125 -1.015625q0.421875 -1.03125 0.421875 -3.1875153q0 -1.640625 -0.21875 -2.65625q-0.203125 -1.03125 -0.59375 -1.46875q-0.390625 -0.453125 -0.921875 -0.453125q-0.5 0 -0.84375 0.296875q-0.328125 0.296875 -0.53125 0.859375q-0.203125 0.546875 -0.296875 1.34375q-0.078125 0.78125 -0.078125 1.765625zm12.483475 0.92189026l-1.984375 -3.6718903q-0.359375 -0.671875 -0.546875 -0.953125q-0.171875 -0.296875 -0.359375 -0.453125q-0.1875 -0.171875 -0.4375 -0.25l0 -0.34375l3.046875 0l0 0.34375q-0.671875 0.078125 -0.671875 0.578125q0 0.21875 0.09375 0.484375q0.109375 0.25 0.359375 0.71875l1.421875 2.71875l1.421875 -2.484375q0.28125 -0.515625 0.390625 -0.828125q0.125 -0.328125 0.125 -0.609375q0 -0.25 -0.15625 -0.390625q-0.15625 -0.15625 -0.453125 -0.1875l0 -0.34375l2.71875 0l0 0.34375q-0.296875 0.109375 -0.53125 0.296875q-0.21875 0.1875 -0.453125 0.515625q-0.21875 0.328125 -0.65625 1.09375l-2.0 3.3906403l0 2.3125q0 0.40625 0.046875 0.65625q0.046875 0.25 0.140625 0.40625q0.109375 0.15625 0.265625 0.25q0.171875 0.078125 0.515625 0.15625l0 0.34375l-3.265625 0l0 -0.34375q0.34375 -0.078125 0.5 -0.15625q0.171875 -0.09375 0.265625 -0.234375q0.109375 -0.15625 0.15625 -0.40625q0.046875 -0.25 0.046875 -0.671875l0 -2.28125zm10.022705 2.875q-0.453125 0.484375 -0.84375 0.765625q-0.375 0.265625 -0.84375 0.421875q-0.453125 0.140625 -1.0 0.140625q-1.46875 0 -2.21875 -0.875q-0.75 -0.890625 -0.75 -2.609375q0 -1.0625153 0.375 -1.8750153q0.390625 -0.828125 1.09375 -1.265625q0.703125 -0.453125 1.625 -0.453125q0.734375 0 1.234375 0.234375q0.515625 0.234375 0.8125 0.640625q0.3125 0.390625 0.46875 1.0q0.171875 0.59375 0.203125 1.5625153l-4.515625 0l0 0.125q0 0.84375 0.1875 1.421875q0.1875 0.578125 0.625 0.90625q0.4375 0.328125 1.125 0.328125q0.59375 0 1.0625 -0.21875q0.46875 -0.21875 0.921875 -0.71875l0.4375 0.46875zm-1.203125 -2.90625q-0.03125 -0.76564026 -0.1875 -1.2500153q-0.15625 -0.5 -0.453125 -0.75q-0.296875 -0.265625 -0.78125 -0.265625q-0.734375 0 -1.1875 0.59375q-0.4375 0.578125 -0.515625 1.6718903l3.125 0zm6.7742157 3.109375l-0.109375 -0.03125q-0.625 0.625 -1.171875 0.890625q-0.546875 0.265625 -1.15625 0.265625q-0.546875 0 -0.96875 -0.203125q-0.40625 -0.21875 -0.625 -0.59375q-0.21875 -0.390625 -0.21875 -0.890625q0 -1.046875 1.03125 -1.609375q1.03125 -0.5625 3.09375 -0.65625l0 -0.46875q0 -0.75001526 -0.140625 -1.1718903q-0.140625 -0.4375 -0.453125 -0.625q-0.296875 -0.203125 -0.8125 -0.203125q-0.5625 0 -0.90625 0.296875q-0.34375 0.28125 -0.515625 0.875l-0.9375 0l0 -0.9375q0.6875 -0.359375 1.140625 -0.515625q0.46875 -0.171875 0.921875 -0.265625q0.46875 -0.109375 0.9375 -0.109375q0.703125 0 1.125 0.234375q0.4375 0.21875 0.65625 0.6875q0.21875 0.46875 0.21875 1.40625l0 2.4843903q0 0.53125 0 0.75q0.015625 0.21875 0.046875 0.40625q0.03125 0.1875 0.09375 0.296875q0.078125 0.109375 0.21875 0.1875q0.140625 0.078125 0.453125 0.171875l0 0.34375l-1.953125 0l0.03125 -1.015625zm-0.125 -2.25q-1.453125 0.015625 -2.171875 0.390625q-0.71875 0.375 -0.71875 1.125q0 0.40625 0.15625 0.640625q0.171875 0.234375 0.421875 0.328125q0.25 0.09375 0.59375 0.09375q0.484375 0 0.875 -0.234375q0.40625 -0.25 0.625 -0.609375q0.21875 -0.359375 0.21875 -0.71875l0 -1.015625zm5.078247 -2.3906403l0.109375 0.03125q0.390625 -0.484375 0.71875 -0.75q0.34375 -0.28125 0.734375 -0.4375q0.390625 -0.15625 0.875 -0.15625q0.421875 0 0.75 0.046875l0 1.640625l-0.796875 0q-0.171875 -0.375 -0.375 -0.546875q-0.1875 -0.1875 -0.53125 -0.1875q-0.25 0 -0.515625 0.15625q-0.25 0.15625 -0.484375 0.4375q-0.234375 0.28125 -0.328125 0.53125q-0.078125 0.25 -0.078125 0.59376526l0 2.5q0 0.65625 0.078125 0.90625q0.078125 0.25 0.25 0.359375q0.1875 0.109375 0.546875 0.1875l0 0.34375l-2.875 0l0 -0.34375q0.265625 -0.09375 0.375 -0.15625q0.125 -0.0625 0.203125 -0.171875q0.09375 -0.125 0.140625 -0.359375q0.046875 -0.234375 0.046875 -0.734375l0 -3.1250153q0 -0.453125 -0.015625 -0.734375q-0.015625 -0.28125 -0.109375 -0.4375q-0.078125 -0.171875 -0.25 -0.25q-0.171875 -0.09375 -0.5 -0.15625l0 -0.359375l1.671875 -0.078125l0.4375 0l-0.078125 1.25zm8.920822 0.375l-0.6875 0q-0.15625 -0.421875 -0.375 -0.671875q-0.203125 -0.25 -0.484375 -0.34375q-0.265625 -0.09375 -0.65625 -0.09375q-0.578125 0 -0.921875 0.265625q-0.328125 0.265625 -0.328125 0.734375q0 0.328125 0.125 0.546875q0.140625 0.203125 0.421875 0.390625q0.296875 0.18751526 1.015625 0.50001526q0.734375 0.3125 1.125 0.578125q0.390625 0.265625 0.609375 0.625q0.234375 0.34375 0.234375 0.828125q0 0.5625 -0.1875 0.953125q-0.1875 0.375 -0.546875 0.625q-0.34375 0.25 -0.828125 0.34375q-0.484375 0.109375 -1.0625 0.109375q-0.59375 0 -1.171875 -0.09375q-0.5625 -0.078125 -1.09375 -0.21875l0 -1.5l0.703125 0q0.1875 0.65625 0.5625 0.953125q0.390625 0.296875 1.046875 0.296875q0.265625 0 0.515625 -0.046875q0.25 -0.0625 0.4375 -0.1875q0.1875 -0.125 0.296875 -0.328125q0.125 -0.21875 0.125 -0.546875q0 -0.359375 -0.140625 -0.59375q-0.140625 -0.234375 -0.453125 -0.421875q-0.296875 -0.1875 -1.046875 -0.5q-0.65625 -0.28125 -1.046875 -0.53125q-0.390625 -0.265625 -0.625 -0.609375q-0.21875 -0.35939026 -0.21875 -0.82814026q0 -0.59375 0.3125 -1.015625q0.3125 -0.4375 0.90625 -0.671875q0.609375 -0.234375 1.421875 -0.234375q0.46875 0 0.90625 0.046875q0.453125 0.046875 1.109375 0.1875l0 1.453125zm7.853256 5.3906403q-1.5 0 -2.28125 -0.875q-0.78125 -0.875 -0.78125 -2.59375q0 -1.1718903 0.40625 -1.9843903q0.421875 -0.828125 1.125 -1.21875q0.71875 -0.40625 1.640625 -0.40625q1.53125 0 2.3125 0.890625q0.796875 0.890625 0.796875 2.5625153q0 1.1875 -0.40625 2.015625q-0.390625 0.8125 -1.109375 1.21875q-0.71875 0.390625 -1.703125 0.390625zm-1.703125 -3.609375q0 1.46875 0.46875 2.265625q0.46875 0.78125 1.34375 0.78125q0.46875 0 0.796875 -0.234375q0.34375 -0.234375 0.546875 -0.625q0.21875 -0.390625 0.3125 -0.90625q0.09375 -0.515625 0.09375 -1.09375q0 -1.0468903 -0.234375 -1.7343903q-0.234375 -0.703125 -0.640625 -1.015625q-0.390625 -0.328125 -0.90625 -0.328125q-0.859375 0 -1.328125 0.75q-0.453125 0.75 -0.453125 2.1406403zm10.044601 -2.6250153l-1.71875 0l0 4.3281403q0 0.484375 0.046875 0.734375q0.046875 0.234375 0.140625 0.359375q0.09375 0.125 0.234375 0.203125q0.15625 0.078125 0.46875 0.15625l0 0.34375l-2.921875 0l0 -0.34375q0.3125 -0.09375 0.4375 -0.171875q0.140625 -0.078125 0.21875 -0.203125q0.078125 -0.125 0.109375 -0.34375q0.046875 -0.234375 0.046875 -0.734375l0 -4.3281403l-0.875 0l0 -0.359375q0.28125 -0.046875 0.359375 -0.0625q0.09375 -0.03125 0.171875 -0.078125q0.09375 -0.046875 0.140625 -0.140625q0.0625 -0.09375 0.109375 -0.28125q0.046875 -0.1875 0.078125 -0.515625q0.0625 -0.78125 0.28125 -1.265625q0.21875 -0.484375 0.640625 -0.828125q0.421875 -0.34375 0.890625 -0.484375q0.484375 -0.140625 1.125 -0.140625q0.5625 0 0.953125 0.078125l0 1.296875l-0.703125 0q-0.140625 -0.421875 -0.328125 -0.59375q-0.171875 -0.171875 -0.5 -0.171875q-0.234375 0 -0.40625 0.0625q-0.15625 0.0625 -0.296875 0.203125q-0.125 0.125 -0.234375 0.359375q-0.09375 0.234375 -0.140625 0.578125q-0.046875 0.328125 -0.046875 0.875l0 0.75l1.71875 0l0 0.71875z" fill-rule="nonzero"/><path fill="#000000" d="m187.03128 276.1189q0.140625 0.625 0.375 1.0q0.25 0.359375 0.640625 0.53125q0.390625 0.171875 1.0 0.171875q0.828125 0 1.28125 -0.4375q0.453125 -0.4375 0.453125 -1.265625q0 -0.546875 -0.1875 -0.90625q-0.1875 -0.375 -0.609375 -0.6875q-0.421875 -0.328125 -1.296875 -0.75q-0.828125 -0.421875 -1.328125 -0.8125q-0.484375 -0.40625 -0.71875 -0.859375q-0.234375 -0.46875 -0.234375 -1.015625q0 -0.8125 0.375 -1.390625q0.375 -0.59375 1.09375 -0.921875q0.734375 -0.328125 1.671875 -0.328125q0.546875 0 1.0625 0.0625q0.515625 0.0625 1.296875 0.265625l0 1.921875l-0.703125 0q-0.171875 -0.625 -0.421875 -0.96875q-0.25 -0.359375 -0.59375 -0.5q-0.328125 -0.140625 -0.859375 -0.140625q-0.46875 0 -0.84375 0.171875q-0.359375 0.171875 -0.578125 0.53125q-0.21875 0.34375 -0.21875 0.8125q0 0.515625 0.1875 0.875q0.1875 0.34375 0.5625 0.640625q0.390625 0.296875 1.15625 0.671875q0.90625 0.453125 1.40625 0.859375q0.515625 0.390625 0.796875 0.890625q0.28125 0.5 0.28125 1.171875q0 0.75 -0.234375 1.28125q-0.234375 0.515625 -0.65625 0.84375q-0.421875 0.328125 -1.0 0.46875q-0.578125 0.140625 -1.28125 0.140625q-1.125 0 -2.59375 -0.375l0 -1.953125l0.71875 0zm9.567749 2.328125q-1.5 0 -2.28125 -0.875q-0.78125 -0.875 -0.78125 -2.59375q0 -1.171875 0.40625 -1.984375q0.421875 -0.828125 1.125 -1.21875q0.71875 -0.40625 1.640625 -0.40625q1.53125 0 2.3125 0.890625q0.796875 0.890625 0.796875 2.5625q0 1.1875 -0.40625 2.015625q-0.390625 0.8125 -1.109375 1.21875q-0.71875 0.390625 -1.703125 0.390625zm-1.703125 -3.609375q0 1.46875 0.46875 2.265625q0.46875 0.78125 1.34375 0.78125q0.46875 0 0.796875 -0.234375q0.34375 -0.234375 0.546875 -0.625q0.21875 -0.390625 0.3125 -0.90625q0.09375 -0.515625 0.09375 -1.09375q0 -1.046875 -0.234375 -1.734375q-0.234375 -0.703125 -0.640625 -1.015625q-0.390625 -0.328125 -0.90625 -0.328125q-0.859375 0 -1.328125 0.75q-0.453125 0.75 -0.453125 2.140625zm8.278976 1.703125q0 0.625 0.046875 0.875q0.0625 0.234375 0.21875 0.359375q0.171875 0.125 0.53125 0.21875l0 0.34375l-2.84375 0l0 -0.34375q0.359375 -0.09375 0.5 -0.1875q0.140625 -0.109375 0.203125 -0.25q0.0625 -0.140625 0.078125 -0.375q0.03125 -0.25 0.03125 -0.640625l0 -5.984375q0 -0.6875 -0.015625 -0.953125q0 -0.28125 -0.046875 -0.46875q-0.046875 -0.1875 -0.140625 -0.296875q-0.078125 -0.109375 -0.21875 -0.171875q-0.140625 -0.0625 -0.5 -0.125l0 -0.375l1.71875 -0.0625l0.4375 0l0 8.4375zm4.103943 -7.84375l0 1.375l-1.3125 0l0 -1.375l1.3125 0zm-2.046875 9.296875q0.28125 -0.09375 0.390625 -0.15625q0.125 -0.0625 0.203125 -0.171875q0.09375 -0.125 0.140625 -0.359375q0.046875 -0.234375 0.046875 -0.734375l0 -3.125q0 -0.453125 -0.015625 -0.734375q-0.015625 -0.28125 -0.109375 -0.4375q-0.078125 -0.171875 -0.25 -0.25q-0.171875 -0.09375 -0.5 -0.15625l0 -0.375l1.671875 -0.0625l0.4375 0l0 5.109375q0 0.625 0.046875 0.875q0.0625 0.234375 0.21875 0.359375q0.171875 0.125 0.53125 0.21875l0 0.34375l-2.8125 0l0 -0.34375zm3.6501007 -6.140625q0.359375 -0.0625 0.578125 -0.203125q0.21875 -0.140625 0.34375 -0.359375q0.125 -0.234375 0.1875 -0.5625q0.078125 -0.34375 0.15625 -1.0l1.03125 0l0 1.765625l2.296875 0l0 0.71875l-2.296875 0l0 3.1875q0 0.703125 0.046875 1.109375q0.0625 0.40625 0.21875 0.640625q0.15625 0.234375 0.359375 0.34375q0.203125 0.09375 0.515625 0.09375q0.28125 0 0.53125 -0.109375q0.25 -0.125 0.5 -0.34375l0.3125 0.375q-0.5 0.5 -0.953125 0.71875q-0.453125 0.21875 -0.9375 0.21875q-0.9375 0 -1.390625 -0.546875q-0.4375 -0.546875 -0.4375 -1.703125l0 -3.984375l-1.0625 0l0 -0.359375zm5.209366 -0.359375l2.046875 0l0 3.640625q0 0.84375 0.0625 1.28125q0.0625 0.4375 0.1875 0.65625q0.140625 0.21875 0.375 0.375q0.234375 0.140625 0.640625 0.140625q0.28125 0 0.53125 -0.09375q0.25 -0.109375 0.546875 -0.375q0.3125 -0.28125 0.4375 -0.546875q0.140625 -0.265625 0.140625 -0.609375l0 -2.6875q0 -0.40625 -0.015625 -0.609375q-0.015625 -0.203125 -0.078125 -0.328125q-0.046875 -0.140625 -0.125 -0.21875q-0.0625 -0.078125 -0.1875 -0.140625q-0.125 -0.0625 -0.390625 -0.125l0 -0.359375l2.03125 0l0 4.890625q0 0.546875 0.015625 0.796875q0.03125 0.234375 0.09375 0.390625q0.078125 0.140625 0.21875 0.234375q0.15625 0.078125 0.546875 0.15625l0 0.375l-1.640625 0.078125l-0.4375 0l0.046875 -1.1875l-0.109375 -0.015625q-0.59375 0.640625 -1.140625 0.9375q-0.53125 0.296875 -1.078125 0.296875q-0.65625 0 -1.078125 -0.25q-0.421875 -0.265625 -0.625 -0.765625q-0.203125 -0.515625 -0.203125 -1.453125l0 -2.703125q0 -0.59375 -0.046875 -0.8125q-0.046875 -0.234375 -0.1875 -0.359375q-0.125 -0.140625 -0.578125 -0.25l0 -0.359375zm13.109482 -0.9375q0 -0.6875 -0.015625 -0.953125q-0.015625 -0.28125 -0.0625 -0.46875q-0.046875 -0.1875 -0.125 -0.296875q-0.078125 -0.109375 -0.21875 -0.171875q-0.140625 -0.0625 -0.515625 -0.125l0 -0.375l1.734375 -0.0625l0.421875 0l0 8.28125q0 0.5625 0.015625 0.796875q0.03125 0.234375 0.09375 0.390625q0.078125 0.140625 0.234375 0.234375q0.15625 0.078125 0.546875 0.15625l0 0.375l-1.6875 0.078125l-0.4375 0l0.09375 -1.1875l-0.109375 -0.015625q-0.453125 0.46875 -0.796875 0.71875q-0.328125 0.234375 -0.703125 0.375q-0.375 0.140625 -0.796875 0.140625q-1.171875 0 -1.8125 -0.890625q-0.640625 -0.890625 -0.640625 -2.5625q0 -1.171875 0.40625 -1.984375q0.421875 -0.828125 1.125 -1.234375q0.703125 -0.40625 1.59375 -0.40625q0.46875 0 0.84375 0.078125q0.390625 0.078125 0.8125 0.25l0 -1.140625zm0 3.53125q0 -0.546875 -0.0625 -0.875q-0.046875 -0.34375 -0.171875 -0.578125q-0.109375 -0.234375 -0.3125 -0.390625q-0.203125 -0.15625 -0.4375 -0.21875q-0.234375 -0.078125 -0.578125 -0.078125q-0.90625 0 -1.390625 0.734375q-0.484375 0.734375 -0.484375 2.109375q0 1.375 0.390625 2.09375q0.40625 0.703125 1.203125 0.703125q0.3125 0 0.515625 -0.046875q0.21875 -0.0625 0.40625 -0.171875q0.203125 -0.125 0.40625 -0.328125q0.21875 -0.203125 0.3125 -0.375q0.09375 -0.171875 0.140625 -0.390625q0.0625 -0.234375 0.0625 -0.578125l0 -1.609375zm9.004639 3.03125q-0.453125 0.484375 -0.84375 0.765625q-0.375 0.265625 -0.84375 0.421875q-0.453125 0.140625 -1.0 0.140625q-1.46875 0 -2.21875 -0.875q-0.75 -0.890625 -0.75 -2.609375q0 -1.0625 0.375 -1.875q0.390625 -0.828125 1.09375 -1.265625q0.703125 -0.453125 1.625 -0.453125q0.734375 0 1.234375 0.234375q0.515625 0.234375 0.8125 0.640625q0.3125 0.390625 0.46875 1.0q0.171875 0.59375 0.203125 1.5625l-4.515625 0l0 0.125q0 0.84375 0.1875 1.421875q0.1875 0.578125 0.625 0.90625q0.4375 0.328125 1.125 0.328125q0.59375 0 1.0625 -0.21875q0.46875 -0.21875 0.921875 -0.71875l0.4375 0.46875zm-1.203125 -2.90625q-0.03125 -0.765625 -0.1875 -1.25q-0.15625 -0.5 -0.453125 -0.75q-0.296875 -0.265625 -0.78125 -0.265625q-0.734375 0 -1.1875 0.59375q-0.4375 0.578125 -0.515625 1.671875l3.125 0z" fill-rule="nonzero"/><path fill="#d9d2e9" d="m279.2366 230.57555l96.25195 0l0 66.55116l-96.25195 0z" fill-rule="evenodd"/><path fill="#000000" d="m326.04892 265.55612q0 0.78125 -0.140625 1.34375q-0.140625 0.53125 -0.40625 0.953125q-0.25 0.375 -0.625 0.640625q-0.375 0.25 -0.90625 0.40625q-0.515625 0.140625 -1.234375 0.140625q-0.875 0 -1.5 -0.1875q-0.609375 -0.1875 -1.015625 -0.625q-0.40625 -0.453125 -0.59375 -1.046875q-0.171875 -0.59375 -0.171875 -1.515625l0 -4.71875q0 -0.546875 -0.03125 -0.75q-0.03125 -0.203125 -0.109375 -0.3125q-0.0625 -0.109375 -0.1875 -0.1875q-0.125 -0.09375 -0.484375 -0.1875l0 -0.34375l3.015625 0l0 0.34375q-0.40625 0.109375 -0.5625 0.234375q-0.15625 0.125 -0.21875 0.375q-0.0625 0.25 -0.0625 0.828125l0 5.078125q0 0.6875 0.140625 1.15625q0.15625 0.46875 0.421875 0.734375q0.265625 0.265625 0.625 0.390625q0.375 0.109375 0.921875 0.109375q0.5 0 0.875 -0.171875q0.375 -0.171875 0.625 -0.53125q0.265625 -0.359375 0.359375 -0.875q0.09375 -0.53125 0.09375 -1.40625l0 -4.484375q0 -0.625 -0.0625 -0.84375q-0.0625 -0.234375 -0.203125 -0.34375q-0.140625 -0.125 -0.578125 -0.25l0 -0.34375l2.859375 0l0 0.34375q-0.421875 0.109375 -0.578125 0.25q-0.140625 0.125 -0.203125 0.375q-0.0625 0.234375 -0.0625 0.8125l0 4.609375zm4.4808655 -1.984375l0.21875 0q0.265625 0 0.484375 -0.078125q0.234375 -0.09375 0.515625 -0.328125q0.28125 -0.234375 0.859375 -0.875q0.6875 -0.765625 0.9375 -1.109375q0.3125 -0.40625 0.421875 -0.6875q0.078125 -0.203125 0.078125 -0.40625q0 -0.28125 -0.171875 -0.40625q-0.15625 -0.140625 -0.4375 -0.171875l0 -0.34375l3.109375 0l0 0.34375q-0.21875 0.046875 -0.453125 0.171875q-0.21875 0.125 -0.453125 0.34375q-0.21875 0.21875 -0.671875 0.71875l-2.40625 2.71875l2.609375 3.78125q0.40625 0.59375 0.640625 0.84375q0.234375 0.234375 0.453125 0.34375q0.21875 0.109375 0.453125 0.15625l0 0.34375l-3.15625 0l0 -0.34375q0.265625 -0.03125 0.390625 -0.109375q0.125 -0.078125 0.125 -0.234375q0 -0.125 -0.09375 -0.3125q-0.078125 -0.1875 -0.25 -0.4375l-1.671875 -2.484375q-0.296875 -0.4375 -0.4375 -0.578125q-0.125 -0.15625 -0.28125 -0.21875q-0.15625 -0.0625 -0.421875 -0.0625l-0.375 0l0 2.984375q0 0.484375 0.03125 0.71875q0.03125 0.21875 0.09375 0.34375q0.078125 0.125 0.21875 0.21875q0.15625 0.078125 0.484375 0.171875l0 0.34375l-3.015625 0l0 -0.34375q0.453125 -0.125 0.59375 -0.265625q0.15625 -0.140625 0.203125 -0.390625q0.046875 -0.265625 0.046875 -0.796875l0 -6.1875q0 -0.484375 -0.046875 -0.703125q-0.03125 -0.234375 -0.109375 -0.359375q-0.078125 -0.125 -0.21875 -0.203125q-0.140625 -0.078125 -0.46875 -0.171875l0 -0.34375l3.015625 0l0 0.34375q-0.3125 0.078125 -0.453125 0.15625q-0.140625 0.078125 -0.21875 0.203125q-0.078125 0.109375 -0.125 0.359375q-0.03125 0.234375 -0.03125 0.71875l-0.015625 2.625z" fill-rule="nonzero"/><path fill="#d9d2e9" d="m411.2382 230.98204l96.25198 0l0 66.55119l-96.25198 0z" fill-rule="evenodd"/><path fill="#000000" d="m431.36218 267.54077q0 0.421875 0.015625 0.640625q0.03125 0.203125 0.078125 0.328125q0.046875 0.125 0.109375 0.203125q0.078125 0.078125 0.203125 0.140625q0.140625 0.0625 0.421875 0.140625l0 0.34375l-3.0 0l0 -0.34375q0.390625 -0.109375 0.546875 -0.21875q0.171875 -0.125 0.21875 -0.375q0.0625 -0.25 0.0625 -0.859375l0 -2.984375l-3.96875 0l0 2.984375q0 0.484375 0.03125 0.71875q0.03125 0.21875 0.09375 0.34375q0.078125 0.125 0.21875 0.21875q0.15625 0.078125 0.484375 0.171875l0 0.34375l-3.015625 0l0 -0.34375q0.453125 -0.125 0.59375 -0.265625q0.15625 -0.140625 0.203125 -0.390625q0.046875 -0.265625 0.046875 -0.796875l0 -6.1875q0 -0.484375 -0.046875 -0.703125q-0.03125 -0.234375 -0.109375 -0.359375q-0.078125 -0.125 -0.21875 -0.203125q-0.140625 -0.078125 -0.46875 -0.171875l0 -0.34375l3.015625 0l0 0.34375q-0.3125 0.078125 -0.453125 0.15625q-0.140625 0.078125 -0.21875 0.203125q-0.078125 0.109375 -0.125 0.359375q-0.03125 0.234375 -0.03125 0.71875l0 2.53125l3.96875 0l0 -2.53125q0 -0.625 -0.0625 -0.84375q-0.046875 -0.234375 -0.203125 -0.34375q-0.140625 -0.125 -0.5625 -0.25l0 -0.34375l3.0 0l0 0.34375q-0.40625 0.109375 -0.5625 0.234375q-0.15625 0.125 -0.21875 0.375q-0.046875 0.25 -0.046875 0.828125l0 6.1875zm6.530609 0.78125l-0.109375 -0.03125q-0.625 0.625 -1.171875 0.890625q-0.546875 0.265625 -1.15625 0.265625q-0.546875 0 -0.96875 -0.203125q-0.40625 -0.21875 -0.625 -0.59375q-0.21875 -0.390625 -0.21875 -0.890625q0 -1.046875 1.03125 -1.609375q1.03125 -0.5625 3.09375 -0.65625l0 -0.46875q0 -0.75 -0.140625 -1.171875q-0.140625 -0.4375 -0.453125 -0.625q-0.296875 -0.203125 -0.8125 -0.203125q-0.5625 0 -0.90625 0.296875q-0.34375 0.28125 -0.515625 0.875l-0.9375 0l0 -0.9375q0.6875 -0.359375 1.140625 -0.515625q0.46875 -0.171875 0.921875 -0.265625q0.46875 -0.109375 0.9375 -0.109375q0.703125 0 1.125 0.234375q0.4375 0.21875 0.65625 0.6875q0.21875 0.46875 0.21875 1.40625l0 2.484375q0 0.53125 0 0.75q0.015625 0.21875 0.046875 0.40625q0.03125 0.1875 0.09375 0.296875q0.078125 0.109375 0.21875 0.1875q0.140625 0.078125 0.453125 0.171875l0 0.34375l-1.953125 0l0.03125 -1.015625zm-0.125 -2.25q-1.453125 0.015625 -2.171875 0.390625q-0.71875 0.375 -0.71875 1.125q0 0.40625 0.15625 0.640625q0.171875 0.234375 0.421875 0.328125q0.25 0.09375 0.59375 0.09375q0.484375 0 0.875 -0.234375q0.40625 -0.25 0.625 -0.609375q0.21875 -0.359375 0.21875 -0.71875l0 -1.015625zm5.078247 -2.390625l0.109375 0.03125q0.390625 -0.484375 0.71875 -0.75q0.34375 -0.28125 0.734375 -0.4375q0.390625 -0.15625 0.875 -0.15625q0.421875 0 0.75 0.046875l0 1.640625l-0.796875 0q-0.171875 -0.375 -0.375 -0.546875q-0.1875 -0.1875 -0.53125 -0.1875q-0.25 0 -0.515625 0.15625q-0.25 0.15625 -0.484375 0.4375q-0.234375 0.28125 -0.328125 0.53125q-0.078125 0.25 -0.078125 0.59375l0 2.5q0 0.65625 0.078125 0.90625q0.078125 0.25 0.25 0.359375q0.1875 0.109375 0.546875 0.1875l0 0.34375l-2.875 0l0 -0.34375q0.265625 -0.09375 0.375 -0.15625q0.125 -0.0625 0.203125 -0.171875q0.09375 -0.125 0.140625 -0.359375q0.046875 -0.234375 0.046875 -0.734375l0 -3.125q0 -0.453125 -0.015625 -0.734375q-0.015625 -0.28125 -0.109375 -0.4375q-0.078125 -0.171875 -0.25 -0.25q-0.171875 -0.09375 -0.5 -0.15625l0 -0.359375l1.671875 -0.078125l0.4375 0l-0.078125 1.25zm6.061432 0l0.109375 0.03125q0.390625 -0.484375 0.71875 -0.75q0.34375 -0.28125 0.734375 -0.4375q0.390625 -0.15625 0.875 -0.15625q0.421875 0 0.75 0.046875l0 1.640625l-0.796875 0q-0.171875 -0.375 -0.375 -0.546875q-0.1875 -0.1875 -0.53125 -0.1875q-0.25 0 -0.515625 0.15625q-0.25 0.15625 -0.484375 0.4375q-0.234375 0.28125 -0.328125 0.53125q-0.078125 0.25 -0.078125 0.59375l0 2.5q0 0.65625 0.078125 0.90625q0.078125 0.25 0.25 0.359375q0.1875 0.109375 0.546875 0.1875l0 0.34375l-2.875 0l0 -0.34375q0.265625 -0.09375 0.375 -0.15625q0.125 -0.0625 0.203125 -0.171875q0.09375 -0.125 0.140625 -0.359375q0.046875 -0.234375 0.046875 -0.734375l0 -3.125q0 -0.453125 -0.015625 -0.734375q-0.015625 -0.28125 -0.109375 -0.4375q-0.078125 -0.171875 -0.25 -0.25q-0.171875 -0.09375 -0.5 -0.15625l0 -0.359375l1.671875 -0.078125l0.4375 0l-0.078125 1.25zm7.1552124 6.25q-0.390625 0.875 -0.765625 1.421875q-0.375 0.5625 -0.828125 0.84375q-0.4375 0.28125 -1.046875 0.28125q-0.390625 0 -0.890625 -0.09375l0 -1.421875l0.640625 0q0.078125 0.296875 0.203125 0.40625q0.140625 0.109375 0.375 0.109375q0.21875 0 0.375 -0.078125q0.171875 -0.078125 0.359375 -0.28125q0.1875 -0.203125 0.421875 -0.625q0.25 -0.40625 0.5625 -1.046875l-2.0 -5.390625q-0.1875 -0.515625 -0.3125 -0.71875q-0.125 -0.21875 -0.265625 -0.3125q-0.125 -0.109375 -0.40625 -0.171875l0 -0.359375l2.921875 0l0 0.359375q-0.34375 0.078125 -0.484375 0.15625q-0.125 0.0625 -0.203125 0.1875q-0.0625 0.109375 -0.0625 0.296875q0 0.203125 0.046875 0.40625q0.046875 0.203125 0.15625 0.484375l1.265625 3.59375l1.4375 -3.4375q0.125 -0.296875 0.1875 -0.53125q0.0625 -0.234375 0.0625 -0.453125q0 -0.296875 -0.171875 -0.453125q-0.15625 -0.15625 -0.578125 -0.25l0 -0.359375l2.6875 0l0 0.359375q-0.28125 0.046875 -0.4375 0.171875q-0.15625 0.109375 -0.3125 0.375q-0.140625 0.25 -0.34375 0.703125l-2.59375 5.828125zm9.9410095 -2.40625q0 0.421875 0.046875 0.671875q0.046875 0.25 0.140625 0.40625q0.09375 0.140625 0.25 0.234375q0.171875 0.078125 0.515625 0.15625l0 0.34375l-3.140625 0l0 -0.34375q0.453125 -0.125 0.59375 -0.265625q0.15625 -0.140625 0.203125 -0.390625q0.046875 -0.265625 0.046875 -0.796875l0 -6.1875q0 -0.484375 -0.046875 -0.703125q-0.03125 -0.234375 -0.109375 -0.359375q-0.078125 -0.125 -0.21875 -0.203125q-0.140625 -0.078125 -0.46875 -0.171875l0 -0.34375l3.5625 0q1.671875 0 2.484375 0.640625q0.828125 0.640625 0.828125 1.953125q0 0.734375 -0.265625 1.328125q-0.25 0.59375 -0.734375 0.984375q-0.46875 0.375 -1.109375 0.546875q-0.640625 0.15625 -1.359375 0.15625q-0.78125 0 -1.21875 -0.03125l0 2.375zm0 -2.96875l0.828125 0q0.8125 0 1.328125 -0.203125q0.53125 -0.21875 0.8125 -0.703125q0.28125 -0.5 0.28125 -1.296875q0 -0.625 -0.171875 -1.03125q-0.15625 -0.421875 -0.453125 -0.671875q-0.296875 -0.25 -0.703125 -0.34375q-0.390625 -0.109375 -0.859375 -0.109375q-0.703125 0 -1.0625 0.03125l0 4.328125zm8.816345 4.890625q-1.5 0 -2.28125 -0.875q-0.78125 -0.875 -0.78125 -2.59375q0 -1.171875 0.40625 -1.984375q0.421875 -0.828125 1.125 -1.21875q0.71875 -0.40625 1.640625 -0.40625q1.53125 0 2.3125 0.890625q0.796875 0.890625 0.796875 2.5625q0 1.1875 -0.40625 2.015625q-0.390625 0.8125 -1.109375 1.21875q-0.71875 0.390625 -1.703125 0.390625zm-1.703125 -3.609375q0 1.46875 0.46875 2.265625q0.46875 0.78125 1.34375 0.78125q0.46875 0 0.796875 -0.234375q0.34375 -0.234375 0.546875 -0.625q0.21875 -0.390625 0.3125 -0.90625q0.09375 -0.515625 0.09375 -1.09375q0 -1.046875 -0.234375 -1.734375q-0.234375 -0.703125 -0.640625 -1.015625q-0.390625 -0.328125 -0.90625 -0.328125q-0.859375 0 -1.328125 0.75q-0.453125 0.75 -0.453125 2.140625zm5.9352417 -2.984375q0.359375 -0.0625 0.578125 -0.203125q0.21875 -0.140625 0.34375 -0.359375q0.125 -0.234375 0.1875 -0.5625q0.078125 -0.34375 0.15625 -1.0l1.03125 0l0 1.765625l2.296875 0l0 0.71875l-2.296875 0l0 3.1875q0 0.703125 0.046875 1.109375q0.0625 0.40625 0.21875 0.640625q0.15625 0.234375 0.359375 0.34375q0.203125 0.09375 0.515625 0.09375q0.28125 0 0.53125 -0.109375q0.25 -0.125 0.5 -0.34375l0.3125 0.375q-0.5 0.5 -0.953125 0.71875q-0.453125 0.21875 -0.9375 0.21875q-0.9375 0 -1.390625 -0.546875q-0.4375 -0.546875 -0.4375 -1.703125l0 -3.984375l-1.0625 0l0 -0.359375zm4.9593506 0q0.359375 -0.0625 0.578125 -0.203125q0.21875 -0.140625 0.34375 -0.359375q0.125 -0.234375 0.1875 -0.5625q0.078125 -0.34375 0.15625 -1.0l1.03125 0l0 1.765625l2.296875 0l0 0.71875l-2.296875 0l0 3.1875q0 0.703125 0.046875 1.109375q0.0625 0.40625 0.21875 0.640625q0.15625 0.234375 0.359375 0.34375q0.203125 0.09375 0.515625 0.09375q0.28125 0 0.53125 -0.109375q0.25 -0.125 0.5 -0.34375l0.3125 0.375q-0.5 0.5 -0.953125 0.71875q-0.453125 0.21875 -0.9375 0.21875q-0.9375 0 -1.390625 -0.546875q-0.4375 -0.546875 -0.4375 -1.703125l0 -3.984375l-1.0625 0l0 -0.359375zm10.9711 5.265625q-0.453125 0.484375 -0.84375 0.765625q-0.375 0.265625 -0.84375 0.421875q-0.453125 0.140625 -1.0 0.140625q-1.46875 0 -2.21875 -0.875q-0.75 -0.890625 -0.75 -2.609375q0 -1.0625 0.375 -1.875q0.390625 -0.828125 1.09375 -1.265625q0.703125 -0.453125 1.625 -0.453125q0.734375 0 1.234375 0.234375q0.515625 0.234375 0.8125 0.640625q0.3125 0.390625 0.46875 1.0q0.171875 0.59375 0.203125 1.5625l-4.515625 0l0 0.125q0 0.84375 0.1875 1.421875q0.1875 0.578125 0.625 0.90625q0.4375 0.328125 1.125 0.328125q0.59375 0 1.0625 -0.21875q0.46875 -0.21875 0.921875 -0.71875l0.4375 0.46875zm-1.203125 -2.90625q-0.03125 -0.765625 -0.1875 -1.25q-0.15625 -0.5 -0.453125 -0.75q-0.296875 -0.265625 -0.78125 -0.265625q-0.734375 0 -1.1875 0.59375q-0.4375 0.578125 -0.515625 1.671875l3.125 0z" fill-rule="nonzero"/><path fill="#000000" fill-opacity="0.0" d="m392.71326 185.87706l0 22.349136l-65.35431 0l0 22.343765" fill-rule="evenodd"/><path stroke="#ffffff" stroke-width="1.0" stroke-linejoin="round" stroke-linecap="butt" d="m392.71326 185.87704l0 22.349152l-65.35431 0l0 18.916687" fill-rule="evenodd"/><path fill="#ffffff" stroke="#ffffff" stroke-width="1.0" stroke-linecap="butt" d="m327.35895 227.14288l-1.1245728 -1.124588l1.1245728 3.0897675l1.1245728 -3.0897675z" fill-rule="evenodd"/><path fill="#000000" fill-opacity="0.0" d="m392.71326 185.87706l0 22.552536l66.64569 0l0 22.54982" fill-rule="evenodd"/><path stroke="#ffffff" stroke-width="1.0" stroke-linejoin="round" stroke-linecap="butt" d="m392.71326 185.87704l0 22.552536l66.64566 0l0 19.122742" fill-rule="evenodd"/><path fill="#ffffff" stroke="#ffffff" stroke-width="1.0" stroke-linecap="butt" d="m459.35892 227.55232l-1.1245728 -1.1245728l1.1245728 3.0897675l1.1246033 -3.0897675z" fill-rule="evenodd"/><path fill="#000000" fill-opacity="0.0" d="m146.41405 185.87706l0 22.552536l-66.23621 0l0 22.54982" fill-rule="evenodd"/><path stroke="#ffffff" stroke-width="1.0" stroke-linejoin="round" stroke-linecap="butt" d="m146.41405 185.87704l0 22.552536l-66.23621 0l0 19.122742" fill-rule="evenodd"/><path fill="#ffffff" stroke="#ffffff" stroke-width="1.0" stroke-linecap="butt" d="m80.17783 227.55232l-1.124588 -1.1245728l1.124588 3.0897675l1.1245804 -3.0897675z" fill-rule="evenodd"/><path fill="#000000" fill-opacity="0.0" d="m146.41405 185.87706l0 22.552536l64.81891 0l0 22.54982" fill-rule="evenodd"/><path stroke="#ffffff" stroke-width="1.0" stroke-linejoin="round" stroke-linecap="butt" d="m146.41405 185.87704l0 22.552536l64.81891 0l0 19.122742" fill-rule="evenodd"/><path fill="#ffffff" stroke="#ffffff" stroke-width="1.0" stroke-linecap="butt" d="m211.23296 227.55232l-1.1245728 -1.1245728l1.1245728 3.0897675l1.124588 -3.0897675z" fill-rule="evenodd"/><path fill="#000000" fill-opacity="0.0" d="m269.56265 84.567345l0 17.37922l-123.14961 0l0 17.392433" fill-rule="evenodd"/><path stroke="#ffffff" stroke-width="1.0" stroke-linejoin="round" stroke-linecap="butt" d="m269.56265 84.567345l0 17.37922l-123.14961 0l0 13.965347" fill-rule="evenodd"/><path fill="#ffffff" stroke="#ffffff" stroke-width="1.0" stroke-linecap="butt" d="m146.41304 115.9119l-1.1245728 -1.1245804l1.1245728 3.0897675l1.124588 -3.0897675z" fill-rule="evenodd"/><path fill="#000000" fill-opacity="0.0" d="m269.56265 84.567345l0 17.37922l123.1496 0l0 17.392433" fill-rule="evenodd"/><path stroke="#ffffff" stroke-width="1.0" stroke-linejoin="round" stroke-linecap="butt" d="m269.56265 84.567345l0 17.37922l123.14963 0l0 13.965347" fill-rule="evenodd"/><path fill="#ffffff" stroke="#ffffff" stroke-width="1.0" stroke-linecap="butt" d="m392.71228 115.9119l-1.1246033 -1.1245804l1.1246033 3.0897675l1.1245728 -3.0897675z" fill-rule="evenodd"/><path fill="#000000" fill-opacity="0.0" d="m83.24147 183.4042l58.330704 0l0 32.314957l-58.330704 0z" fill-rule="evenodd"/><path fill="#ffffff" d="m98.507095 199.97232l1.015625 0.25q-0.328125 1.25 -1.15625 1.90625q-0.8125 0.640625 -2.015625 0.640625q-1.234375 0 -2.0 -0.5q-0.765625 -0.5 -1.171875 -1.453125q-0.40625 -0.953125 -0.40625 -2.046875q0 -1.1875 0.453125 -2.078125q0.453125 -0.890625 1.296875 -1.34375q0.84375 -0.46875 1.84375 -0.46875q1.15625 0 1.9375 0.59375q0.78125 0.578125 1.078125 1.640625l-0.984375 0.234375q-0.265625 -0.84375 -0.78125 -1.21875q-0.5 -0.375 -1.265625 -0.375q-0.875 0 -1.46875 0.421875q-0.59375 0.421875 -0.828125 1.140625q-0.234375 0.703125 -0.234375 1.453125q0 0.96875 0.28125 1.703125q0.28125 0.71875 0.875 1.078125q0.59375 0.359375 1.296875 0.359375q0.84375 0 1.4375 -0.484375q0.59375 -0.5 0.796875 -1.453125zm1.7893524 -0.09375q0 -1.53125 0.84375 -2.265625q0.71875 -0.625 1.734375 -0.625q1.140625 0 1.859375 0.75q0.734375 0.75 0.734375 2.0625q0 1.0625 -0.328125 1.6875q-0.3125 0.609375 -0.921875 0.953125q-0.609375 0.328125 -1.34375 0.328125q-1.15625 0 -1.875 -0.734375q-0.703125 -0.75 -0.703125 -2.15625zm0.953125 0q0 1.0625 0.46875 1.59375q0.46875 0.53125 1.15625 0.53125q0.703125 0 1.15625 -0.53125q0.46875 -0.53125 0.46875 -1.625q0 -1.015625 -0.46875 -1.546875q-0.453125 -0.53125 -1.15625 -0.53125q-0.6875 0 -1.15625 0.53125q-0.46875 0.515625 -0.46875 1.578125zm8.942123 2.765625l0 -0.8125q-0.65625 0.9375 -1.75 0.9375q-0.5 0 -0.921875 -0.1875q-0.421875 -0.1875 -0.625 -0.46875q-0.203125 -0.28125 -0.296875 -0.703125q-0.046875 -0.265625 -0.046875 -0.875l0 -3.421875l0.9375 0l0 3.0625q0 0.734375 0.046875 1.0q0.09375 0.359375 0.375 0.578125q0.296875 0.203125 0.703125 0.203125q0.421875 0 0.796875 -0.203125q0.375 -0.21875 0.515625 -0.59375q0.15625 -0.375 0.15625 -1.078125l0 -2.96875l0.9375 0l0 5.53125l-0.828125 0zm2.3014984 0l0 -5.53125l0.84375 0l0 0.796875q0.609375 -0.921875 1.75 -0.921875q0.5 0 0.921875 0.1875q0.421875 0.171875 0.625 0.46875q0.21875 0.296875 0.296875 0.6875q0.046875 0.265625 0.046875 0.921875l0 3.390625l-0.9375 0l0 -3.359375q0 -0.578125 -0.109375 -0.859375q-0.109375 -0.28125 -0.390625 -0.453125q-0.265625 -0.171875 -0.640625 -0.171875q-0.59375 0 -1.03125 0.390625q-0.4375 0.375 -0.4375 1.4375l0 3.015625l-0.9375 0zm7.9733734 -0.84375l0.125 0.828125q-0.390625 0.09375 -0.703125 0.09375q-0.5 0 -0.78125 -0.15625q-0.28125 -0.171875 -0.40625 -0.4375q-0.109375 -0.265625 -0.109375 -1.109375l0 -3.171875l-0.6875 0l0 -0.734375l0.6875 0l0 -1.359375l0.9375 -0.5625l0 1.921875l0.9375 0l0 0.734375l-0.9375 0l0 3.234375q0 0.390625 0.046875 0.515625q0.046875 0.109375 0.15625 0.1875q0.109375 0.0625 0.328125 0.0625q0.15625 0 0.40625 -0.046875zm0.8981476 0.84375l0 -5.53125l0.84375 0l0 0.84375q0.328125 -0.59375 0.59375 -0.78125q0.28125 -0.1875 0.609375 -0.1875q0.46875 0 0.953125 0.3125l-0.3125 0.859375q-0.34375 -0.203125 -0.6875 -0.203125q-0.3125 0 -0.5625 0.1875q-0.234375 0.1875 -0.34375 0.515625q-0.15625 0.5 -0.15625 1.09375l0 2.890625l-0.9375 0zm3.5173645 2.125l-0.09375 -0.875q0.296875 0.078125 0.53125 0.078125q0.3125 0 0.5 -0.109375q0.1875 -0.09375 0.3125 -0.28125q0.078125 -0.140625 0.28125 -0.703125q0.03125 -0.078125 0.078125 -0.21875l-2.09375 -5.546875l1.015625 0l1.140625 3.203125q0.234375 0.609375 0.40625 1.28125q0.15625 -0.640625 0.375 -1.265625l1.1875 -3.21875l0.9375 0l-2.109375 5.625q-0.328125 0.90625 -0.515625 1.25q-0.25 0.46875 -0.578125 0.6875q-0.3125 0.21875 -0.765625 0.21875q-0.265625 0 -0.609375 -0.125z" fill-rule="nonzero"/><path fill="#000000" fill-opacity="0.0" d="m331.24146 183.4042l58.33072 0l0 32.314957l-58.33072 0z" fill-rule="evenodd"/><path fill="#ffffff" d="m346.50708 199.97232l1.015625 0.25q-0.328125 1.25 -1.15625 1.90625q-0.8125 0.640625 -2.015625 0.640625q-1.234375 0 -2.0 -0.5q-0.765625 -0.5 -1.171875 -1.453125q-0.40625 -0.953125 -0.40625 -2.046875q0 -1.1875 0.453125 -2.078125q0.453125 -0.890625 1.296875 -1.34375q0.84375 -0.46875 1.84375 -0.46875q1.15625 0 1.9375 0.59375q0.78125 0.578125 1.078125 1.640625l-0.984375 0.234375q-0.265625 -0.84375 -0.78125 -1.21875q-0.5 -0.375 -1.265625 -0.375q-0.875 0 -1.46875 0.421875q-0.59375 0.421875 -0.828125 1.140625q-0.234375 0.703125 -0.234375 1.453125q0 0.96875 0.28125 1.703125q0.28125 0.71875 0.875 1.078125q0.59375 0.359375 1.296875 0.359375q0.84375 0 1.4375 -0.484375q0.59375 -0.5 0.796875 -1.453125zm1.7893677 -0.09375q0 -1.53125 0.84375 -2.265625q0.71875 -0.625 1.734375 -0.625q1.140625 0 1.859375 0.75q0.734375 0.75 0.734375 2.0625q0 1.0625 -0.328125 1.6875q-0.3125 0.609375 -0.921875 0.953125q-0.609375 0.328125 -1.34375 0.328125q-1.15625 0 -1.875 -0.734375q-0.703125 -0.75 -0.703125 -2.15625zm0.953125 0q0 1.0625 0.46875 1.59375q0.46875 0.53125 1.15625 0.53125q0.703125 0 1.15625 -0.53125q0.46875 -0.53125 0.46875 -1.625q0 -1.015625 -0.46875 -1.546875q-0.453125 -0.53125 -1.15625 -0.53125q-0.6875 0 -1.15625 0.53125q-0.46875 0.515625 -0.46875 1.578125zm8.942108 2.765625l0 -0.8125q-0.65625 0.9375 -1.75 0.9375q-0.5 0 -0.921875 -0.1875q-0.421875 -0.1875 -0.625 -0.46875q-0.203125 -0.28125 -0.296875 -0.703125q-0.046875 -0.265625 -0.046875 -0.875l0 -3.421875l0.9375 0l0 3.0625q0 0.734375 0.046875 1.0q0.09375 0.359375 0.375 0.578125q0.296875 0.203125 0.703125 0.203125q0.421875 0 0.796875 -0.203125q0.375 -0.21875 0.515625 -0.59375q0.15625 -0.375 0.15625 -1.078125l0 -2.96875l0.9375 0l0 5.53125l-0.828125 0zm2.3015137 0l0 -5.53125l0.84375 0l0 0.796875q0.609375 -0.921875 1.75 -0.921875q0.5 0 0.921875 0.1875q0.421875 0.171875 0.625 0.46875q0.21875 0.296875 0.296875 0.6875q0.046875 0.265625 0.046875 0.921875l0 3.390625l-0.9375 0l0 -3.359375q0 -0.578125 -0.109375 -0.859375q-0.109375 -0.28125 -0.390625 -0.453125q-0.265625 -0.171875 -0.640625 -0.171875q-0.59375 0 -1.03125 0.390625q-0.4375 0.375 -0.4375 1.4375l0 3.015625l-0.9375 0zm7.973358 -0.84375l0.125 0.828125q-0.390625 0.09375 -0.703125 0.09375q-0.5 0 -0.78125 -0.15625q-0.28125 -0.171875 -0.40625 -0.4375q-0.109375 -0.265625 -0.109375 -1.109375l0 -3.171875l-0.6875 0l0 -0.734375l0.6875 0l0 -1.359375l0.9375 -0.5625l0 1.921875l0.9375 0l0 0.734375l-0.9375 0l0 3.234375q0 0.390625 0.046875 0.515625q0.046875 0.109375 0.15625 0.1875q0.109375 0.0625 0.328125 0.0625q0.15625 0 0.40625 -0.046875zm0.89816284 0.84375l0 -5.53125l0.84375 0l0 0.84375q0.328125 -0.59375 0.59375 -0.78125q0.28125 -0.1875 0.609375 -0.1875q0.46875 0 0.953125 0.3125l-0.3125 0.859375q-0.34375 -0.203125 -0.6875 -0.203125q-0.3125 0 -0.5625 0.1875q-0.234375 0.1875 -0.34375 0.515625q-0.15625 0.5 -0.15625 1.09375l0 2.890625l-0.9375 0zm3.5173645 2.125l-0.09375 -0.875q0.296875 0.078125 0.53125 0.078125q0.3125 0 0.5 -0.109375q0.1875 -0.09375 0.3125 -0.28125q0.078125 -0.140625 0.28125 -0.703125q0.03125 -0.078125 0.078125 -0.21875l-2.09375 -5.546875l1.015625 0l1.140625 3.203125q0.234375 0.609375 0.40625 1.28125q0.15625 -0.640625 0.375 -1.265625l1.1875 -3.21875l0.9375 0l-2.109375 5.625q-0.328125 0.90625 -0.515625 1.25q-0.25 0.46875 -0.578125 0.6875q-0.3125 0.21875 -0.765625 0.21875q-0.265625 0 -0.609375 -0.125z" fill-rule="nonzero"/><path fill="#000000" fill-opacity="0.0" d="m397.21924 183.4042l58.33072 0l0 32.314957l-58.33072 0z" fill-rule="evenodd"/><path fill="#ffffff" d="m407.0005 202.6442l0 -7.625l2.859375 0q0.875 0 1.40625 0.234375q0.53125 0.21875 0.828125 0.703125q0.296875 0.484375 0.296875 1.015625q0 0.484375 -0.265625 0.921875q-0.265625 0.421875 -0.796875 0.6875q0.6875 0.203125 1.0625 0.703125q0.375 0.484375 0.375 1.140625q0 0.546875 -0.234375 1.015625q-0.21875 0.453125 -0.5625 0.703125q-0.328125 0.25 -0.828125 0.375q-0.5 0.125 -1.234375 0.125l-2.90625 0zm1.015625 -4.421875l1.640625 0q0.671875 0 0.96875 -0.09375q0.375 -0.109375 0.5625 -0.375q0.203125 -0.265625 0.203125 -0.671875q0 -0.375 -0.1875 -0.65625q-0.171875 -0.296875 -0.515625 -0.40625q-0.328125 -0.109375 -1.15625 -0.109375l-1.515625 0l0 2.3125zm0 3.515625l1.890625 0q0.484375 0 0.6875 -0.03125q0.34375 -0.0625 0.578125 -0.203125q0.234375 -0.15625 0.390625 -0.421875q0.15625 -0.28125 0.15625 -0.65625q0 -0.421875 -0.21875 -0.734375q-0.21875 -0.3125 -0.609375 -0.4375q-0.390625 -0.125 -1.125 -0.125l-1.75 0l0 2.609375zm5.6701355 -1.859375q0 -1.53125 0.84375 -2.265625q0.71875 -0.625 1.734375 -0.625q1.140625 0 1.859375 0.75q0.734375 0.75 0.734375 2.0625q0 1.0625 -0.328125 1.6875q-0.3125 0.609375 -0.921875 0.953125q-0.609375 0.328125 -1.34375 0.328125q-1.15625 0 -1.875 -0.734375q-0.703125 -0.75 -0.703125 -2.15625zm0.953125 0q0 1.0625 0.46875 1.59375q0.46875 0.53125 1.15625 0.53125q0.703125 0 1.15625 -0.53125q0.46875 -0.53125 0.46875 -1.625q0 -1.015625 -0.46875 -1.546875q-0.453125 -0.53125 -1.15625 -0.53125q-0.6875 0 -1.15625 0.53125q-0.46875 0.515625 -0.46875 1.578125zm4.9733887 0q0 -1.53125 0.84375 -2.265625q0.71875 -0.625 1.734375 -0.625q1.140625 0 1.859375 0.75q0.734375 0.75 0.734375 2.0625q0 1.0625 -0.328125 1.6875q-0.3125 0.609375 -0.921875 0.953125q-0.609375 0.328125 -1.34375 0.328125q-1.15625 0 -1.875 -0.734375q-0.703125 -0.75 -0.703125 -2.15625zm0.953125 0q0 1.0625 0.46875 1.59375q0.46875 0.53125 1.15625 0.53125q0.703125 0 1.15625 -0.53125q0.46875 -0.53125 0.46875 -1.625q0 -1.015625 -0.46875 -1.546875q-0.453125 -0.53125 -1.15625 -0.53125q-0.6875 0 -1.15625 0.53125q-0.46875 0.515625 -0.46875 1.578125zm5.317108 2.765625l0 -7.625l0.9375 0l0 4.34375l2.21875 -2.25l1.21875 0l-2.125 2.0625l2.328125 3.46875l-1.15625 0l-1.8125 -2.828125l-0.671875 0.640625l0 2.1875l-0.9375 0zm4.46875 2.125l0 -0.6875l6.203125 0l0 0.6875l-6.203125 0zm10.051514 -2.125l-0.9375 0l0 -5.96875q-0.34375 0.328125 -0.890625 0.65625q-0.546875 0.3125 -0.984375 0.46875l0 -0.90625q0.796875 -0.359375 1.375 -0.890625q0.59375 -0.53125 0.828125 -1.015625l0.609375 0l0 7.65625z" fill-rule="nonzero"/><path fill="#000000" fill-opacity="0.0" d="m151.78036 183.4042l58.330704 0l0 32.314957l-58.330704 0z" fill-rule="evenodd"/><path fill="#ffffff" d="m161.56161 202.6442l0 -7.625l2.859375 0q0.875 0 1.40625 0.234375q0.53125 0.21875 0.828125 0.703125q0.296875 0.484375 0.296875 1.015625q0 0.484375 -0.265625 0.921875q-0.265625 0.421875 -0.796875 0.6875q0.6875 0.203125 1.0625 0.703125q0.375 0.484375 0.375 1.140625q0 0.546875 -0.234375 1.015625q-0.21875 0.453125 -0.5625 0.703125q-0.328125 0.25 -0.828125 0.375q-0.5 0.125 -1.234375 0.125l-2.90625 0zm1.015625 -4.421875l1.640625 0q0.671875 0 0.96875 -0.09375q0.375 -0.109375 0.5625 -0.375q0.203125 -0.265625 0.203125 -0.671875q0 -0.375 -0.1875 -0.65625q-0.171875 -0.296875 -0.515625 -0.40625q-0.328125 -0.109375 -1.15625 -0.109375l-1.515625 0l0 2.3125zm0 3.515625l1.890625 0q0.484375 0 0.6875 -0.03125q0.34375 -0.0625 0.578125 -0.203125q0.234375 -0.15625 0.390625 -0.421875q0.15625 -0.28125 0.15625 -0.65625q0 -0.421875 -0.21875 -0.734375q-0.21875 -0.3125 -0.609375 -0.4375q-0.390625 -0.125 -1.125 -0.125l-1.75 0l0 2.609375zm5.6701355 -1.859375q0 -1.53125 0.84375 -2.265625q0.71875 -0.625 1.734375 -0.625q1.140625 0 1.859375 0.75q0.734375 0.75 0.734375 2.0625q0 1.0625 -0.328125 1.6875q-0.3125 0.609375 -0.921875 0.953125q-0.609375 0.328125 -1.34375 0.328125q-1.15625 0 -1.875 -0.734375q-0.703125 -0.75 -0.703125 -2.15625zm0.953125 0q0 1.0625 0.46875 1.59375q0.46875 0.53125 1.15625 0.53125q0.703125 0 1.15625 -0.53125q0.46875 -0.53125 0.46875 -1.625q0 -1.015625 -0.46875 -1.546875q-0.453125 -0.53125 -1.15625 -0.53125q-0.6875 0 -1.15625 0.53125q-0.46875 0.515625 -0.46875 1.578125zm4.9733734 0q0 -1.53125 0.84375 -2.265625q0.71875 -0.625 1.734375 -0.625q1.140625 0 1.859375 0.75q0.734375 0.75 0.734375 2.0625q0 1.0625 -0.328125 1.6875q-0.3125 0.609375 -0.921875 0.953125q-0.609375 0.328125 -1.34375 0.328125q-1.15625 0 -1.875 -0.734375q-0.703125 -0.75 -0.703125 -2.15625zm0.953125 0q0 1.0625 0.46875 1.59375q0.46875 0.53125 1.15625 0.53125q0.703125 0 1.15625 -0.53125q0.46875 -0.53125 0.46875 -1.625q0 -1.015625 -0.46875 -1.546875q-0.453125 -0.53125 -1.15625 -0.53125q-0.6875 0 -1.15625 0.53125q-0.46875 0.515625 -0.46875 1.578125zm5.3171234 2.765625l0 -7.625l0.9375 0l0 4.34375l2.21875 -2.25l1.21875 0l-2.125 2.0625l2.328125 3.46875l-1.15625 0l-1.8125 -2.828125l-0.671875 0.640625l0 2.1875l-0.9375 0zm4.46875 2.125l0 -0.6875l6.203125 0l0 0.6875l-6.203125 0zm10.051498 -2.125l-0.9375 0l0 -5.96875q-0.34375 0.328125 -0.890625 0.65625q-0.546875 0.3125 -0.984375 0.46875l0 -0.90625q0.796875 -0.359375 1.375 -0.890625q0.59375 -0.53125 0.828125 -1.015625l0.609375 0l0 7.65625z" fill-rule="nonzero"/></g></svg>